<svg width="16" height="10" viewBox="0 0 16 10" fill="none" xmlns="http://www.w3.org/2000/svg">
<path d="M15.6657 1.56466C15.4817 0.948776 14.9395 0.463724 14.2511 0.299115C13.0033 0 8 0 8 0C8 0 2.99669 0 1.7489 0.299115C1.06052 0.46375 0.518349 0.948776 0.334336 1.56466C0 2.68099 -1.13994e-08 5.0101 -1.13994e-08 5.0101C-1.13994e-08 5.0101 0 7.33922 0.334336 8.45555C0.518349 9.07143 1.06052 9.53628 1.7489 9.70089C2.99669 10 8 10 8 10C8 10 13.0033 10 14.2511 9.70089C14.9395 9.53628 15.4817 9.07143 15.6657 8.45555C16 7.33922 16 5.0101 16 5.0101C16 5.0101 16 2.68099 15.6657 1.56466ZM6.36363 7.12477V2.89544L10.5454 5.01016L6.36363 7.12477Z" fill="#9FA0B2"/>
</svg>
