<svg width="30" height="25" viewBox="0 0 30 25" fill="none" xmlns="http://www.w3.org/2000/svg">
<path d="M27 0H3C1.35 0 0.015 1.40625 0.015 3.125L0 21.875C0 23.5938 1.35 25 3 25H27C28.65 25 30 23.5938 30 21.875V3.125C30 1.40625 28.65 0 27 0ZM26.4 6.64062L15.795 13.5469C15.315 13.8594 14.685 13.8594 14.205 13.5469L3.6 6.64062C3.225 6.39062 3 5.96875 3 5.51563C3 4.46875 4.095 3.84375 4.95 4.39062L15 10.9375L25.05 4.39062C25.905 3.84375 27 4.46875 27 5.51563C27 5.96875 26.775 6.39062 26.4 6.64062Z" fill="white"/>
</svg>
