<svg width="38" height="38" viewBox="0 0 38 38" fill="none" xmlns="http://www.w3.org/2000/svg">
<path d="M34.2767 25.9134L28.9037 25.2999C27.6133 25.1519 26.3441 25.5961 25.4345 26.5057L21.5422 30.398C15.5557 27.3519 10.6481 22.4653 7.60194 16.4577L11.5154 12.5442C12.425 11.6346 12.8692 10.3654 12.7211 9.07498L12.1077 3.74422C11.8538 1.60769 10.0558 0 7.8981 0H4.23851C1.84814 0 -0.140305 1.98846 0.00777076 4.37884C1.12892 22.4442 15.5769 36.8711 33.621 37.9922C36.0113 38.1403 37.9998 36.1518 37.9998 33.7615V30.1019C38.0209 27.9653 36.4133 26.1673 34.2767 25.9134Z" fill="white"/>
</svg>
