<svg width="32" height="30" viewBox="0 0 32 30" fill="none" xmlns="http://www.w3.org/2000/svg">
<mask id="path-1-outside-1_923_4" maskUnits="userSpaceOnUse" x="-1" y="-0.55127" width="34" height="31" fill="black">
<rect fill="white" x="-1" y="-0.55127" width="34" height="31"/>
<path d="M28.5049 12.4395L31.7226 9.25048C32.0921 8.88429 32.0925 8.28672 31.7237 7.91991C25.463 1.69268 26.7604 2.98513 25.0678 1.29249C24.7016 0.926428 24.1081 0.926428 23.742 1.29249L21.334 3.70026C20.75 4.28426 18.7562 4.07057 16.9008 4.46801C15.3188 3.54838 14.0158 3.60019 12.9576 3.64251C12.0204 3.68007 11.5347 3.68907 10.8913 3.28319C10.5689 3.06969 10.5744 3.05025 8.24736 0.723302C7.88123 0.357175 7.28767 0.357238 6.92154 0.723302C6.26666 1.37812 0.33544 7.29184 0.275564 7.35147C0.0990008 7.52753 -0.000187236 7.76666 2.6535e-07 8.01603C0.000187766 8.26541 0.0996883 8.50435 0.276502 8.68016L3.38396 11.77C3.48177 11.8994 3.56633 12.4329 3.6224 12.7866C3.74127 13.5367 3.89446 14.5009 4.42803 15.3752L4.33428 15.4689C3.23508 16.5681 3.23496 18.3472 4.33428 19.4464C4.84322 19.9554 5.50041 20.2277 6.1681 20.2642C6.2046 20.932 6.47698 21.5891 6.98592 22.0981C7.48048 22.5927 8.12686 22.8801 8.81993 22.9174C8.85674 23.5847 9.12905 24.2412 9.63762 24.7498C10.1466 25.2588 10.8037 25.5311 11.4714 25.5676C11.5079 26.2353 11.7803 26.8925 12.2893 27.4014C13.1664 28.2785 14.4601 28.445 15.491 27.9515L16.2668 28.7272C17.3659 29.8264 19.1451 29.8265 20.2442 28.7272C20.7388 28.2326 21.0262 27.5863 21.0636 26.8933C21.7308 26.8565 22.3874 26.5841 22.8959 26.0756C23.4045 25.5669 23.6768 24.9104 23.7136 24.2432C24.4067 24.2058 25.053 23.9185 25.5476 23.4239C26.0565 22.9149 26.3289 22.2578 26.3654 21.5901C27.0332 21.5536 27.6903 21.2813 28.1992 20.7723C29.2958 19.6757 29.2958 17.8914 28.1992 16.7948L27.4627 16.0583C28.3605 14.6356 28.1775 13.0354 28.4912 12.4566C28.4957 12.4506 28.5002 12.4441 28.5049 12.4395ZM20.2999 5.96833L26.5798 12.2483C26.378 13.0313 26.3958 13.9023 26.075 14.6706L20.2442 8.83985C19.1451 7.74072 17.366 7.74053 16.2667 8.83985L13.6151 11.4915C13.2486 11.8579 12.6557 11.8579 12.2893 11.4915C11.9238 11.1259 11.9237 10.5312 12.2893 10.1657L14.941 7.51397C16.4472 6.00771 18.5175 6.18358 20.2999 5.96833ZM3.7009 9.44098L2.2662 8.01441C3.53271 6.75165 6.27566 4.01663 7.58386 2.71144L9.00718 4.1347L3.7009 9.44098ZM6.98585 18.1206C6.62029 18.4862 6.02554 18.4862 5.65997 18.1206C5.29359 17.7541 5.29366 17.1612 5.66003 16.7948C6.17072 16.2841 6.45498 15.9998 6.98585 15.4689C7.35136 15.1034 7.94617 15.1034 8.31167 15.4689C8.67811 15.8354 8.67811 16.4283 8.31167 16.7948L6.98585 18.1206ZM9.63756 20.7723C9.27112 21.1387 8.67818 21.1387 8.31174 20.7723C7.94617 20.4067 7.94617 19.812 8.31174 19.4464L9.63756 18.1206C10.0032 17.755 10.5979 17.7551 10.9634 18.1206C11.3289 18.4862 11.3289 19.0809 10.9634 19.4464L9.63756 20.7723ZM10.9634 23.4239C10.5979 23.0584 10.5979 22.4636 10.9634 22.0981L12.2893 20.7723C12.6557 20.4059 13.2486 20.4059 13.6151 20.7723C13.9815 21.1388 13.9815 21.7317 13.6151 22.0981L12.2893 23.4239C11.9237 23.7894 11.3289 23.7894 10.9634 23.4239ZM16.2667 24.7497L14.9408 26.0755C14.5744 26.442 13.9815 26.442 13.615 26.0756C13.2495 25.71 13.2495 25.1153 13.615 24.7498L14.9408 23.4239C14.9408 23.424 14.9409 23.4239 14.9408 23.4239C15.3064 23.0586 15.901 23.0585 16.2665 23.4238C16.2665 23.4237 16.2666 23.4238 16.2665 23.4238C16.6318 23.7894 16.6321 24.3843 16.2667 24.7497ZM18.9184 27.4015C18.552 27.7678 17.959 27.7679 17.5925 27.4015L16.9296 26.7385L17.5925 26.0756C17.8249 25.8433 18.0075 25.5798 18.1414 25.2987L18.9184 26.0756C19.2848 26.442 19.2848 27.035 18.9184 27.4015ZM26.8734 19.4464C26.5079 19.8119 25.9132 19.8119 25.5476 19.4464L21.0072 14.906C20.6411 14.5399 20.0475 14.5399 19.6814 14.906C19.3152 15.2721 19.3152 15.8657 19.6814 16.2318L24.2218 20.7722C24.5873 21.1378 24.5873 21.7325 24.2218 22.098C23.8555 22.4642 23.2628 22.4646 22.8961 22.0982L18.4141 17.6163C18.048 17.2501 17.4544 17.2501 17.0883 17.6163C16.7222 17.9824 16.7222 18.576 17.0883 18.9421L21.5701 23.4239C21.9356 23.7894 21.9356 24.3842 21.5701 24.7497C21.2045 25.1153 20.6098 25.1153 20.2442 24.7497L17.5925 22.098C17.084 21.5894 16.4274 21.3171 15.7602 21.2803C15.7228 20.5872 15.4355 19.9409 14.9409 19.4463C14.4463 18.9518 13.8 18.6644 13.107 18.627C13.0701 17.9598 12.7978 17.3033 12.2893 16.7947C11.7947 16.3001 11.1484 16.0128 10.4553 15.9754C10.4185 15.3081 10.1462 14.6516 9.63756 14.143C8.59443 13.1 6.9296 13.0499 5.82585 13.9911C5.6386 13.5257 5.55528 13.0042 5.47428 12.4931C5.37609 11.8736 5.28134 11.2817 4.99009 10.8034L10.5694 5.22414C11.4413 5.57902 12.2696 5.54652 13.0327 5.51595C13.4826 5.49783 13.9213 5.48058 14.3798 5.53996C14.1182 5.72689 13.8623 5.94083 13.6151 6.18808L10.9634 8.83972C9.86681 9.93629 9.86687 11.7206 10.9634 12.8172C12.0626 13.9164 13.8416 13.9164 14.9409 12.8172L17.5925 10.1655C17.959 9.79917 18.5519 9.7991 18.9184 10.1655L26.8733 18.1205C27.2389 18.4862 27.2389 19.0809 26.8734 19.4464ZM22.3056 5.32233C22.5623 5.14295 22.5089 5.17708 24.4049 3.28125C25.265 4.14138 24.3645 3.24457 29.7321 8.58335L27.64 10.6568L22.3056 5.32233Z"/>
</mask>
<path d="M28.5049 12.4395L31.7226 9.25048C32.0921 8.88429 32.0925 8.28672 31.7237 7.91991C25.463 1.69268 26.7604 2.98513 25.0678 1.29249C24.7016 0.926428 24.1081 0.926428 23.742 1.29249L21.334 3.70026C20.75 4.28426 18.7562 4.07057 16.9008 4.46801C15.3188 3.54838 14.0158 3.60019 12.9576 3.64251C12.0204 3.68007 11.5347 3.68907 10.8913 3.28319C10.5689 3.06969 10.5744 3.05025 8.24736 0.723302C7.88123 0.357175 7.28767 0.357238 6.92154 0.723302C6.26666 1.37812 0.33544 7.29184 0.275564 7.35147C0.0990008 7.52753 -0.000187236 7.76666 2.6535e-07 8.01603C0.000187766 8.26541 0.0996883 8.50435 0.276502 8.68016L3.38396 11.77C3.48177 11.8994 3.56633 12.4329 3.6224 12.7866C3.74127 13.5367 3.89446 14.5009 4.42803 15.3752L4.33428 15.4689C3.23508 16.5681 3.23496 18.3472 4.33428 19.4464C4.84322 19.9554 5.50041 20.2277 6.1681 20.2642C6.2046 20.932 6.47698 21.5891 6.98592 22.0981C7.48048 22.5927 8.12686 22.8801 8.81993 22.9174C8.85674 23.5847 9.12905 24.2412 9.63762 24.7498C10.1466 25.2588 10.8037 25.5311 11.4714 25.5676C11.5079 26.2353 11.7803 26.8925 12.2893 27.4014C13.1664 28.2785 14.4601 28.445 15.491 27.9515L16.2668 28.7272C17.3659 29.8264 19.1451 29.8265 20.2442 28.7272C20.7388 28.2326 21.0262 27.5863 21.0636 26.8933C21.7308 26.8565 22.3874 26.5841 22.8959 26.0756C23.4045 25.5669 23.6768 24.9104 23.7136 24.2432C24.4067 24.2058 25.053 23.9185 25.5476 23.4239C26.0565 22.9149 26.3289 22.2578 26.3654 21.5901C27.0332 21.5536 27.6903 21.2813 28.1992 20.7723C29.2958 19.6757 29.2958 17.8914 28.1992 16.7948L27.4627 16.0583C28.3605 14.6356 28.1775 13.0354 28.4912 12.4566C28.4957 12.4506 28.5002 12.4441 28.5049 12.4395ZM20.2999 5.96833L26.5798 12.2483C26.378 13.0313 26.3958 13.9023 26.075 14.6706L20.2442 8.83985C19.1451 7.74072 17.366 7.74053 16.2667 8.83985L13.6151 11.4915C13.2486 11.8579 12.6557 11.8579 12.2893 11.4915C11.9238 11.1259 11.9237 10.5312 12.2893 10.1657L14.941 7.51397C16.4472 6.00771 18.5175 6.18358 20.2999 5.96833ZM3.7009 9.44098L2.2662 8.01441C3.53271 6.75165 6.27566 4.01663 7.58386 2.71144L9.00718 4.1347L3.7009 9.44098ZM6.98585 18.1206C6.62029 18.4862 6.02554 18.4862 5.65997 18.1206C5.29359 17.7541 5.29366 17.1612 5.66003 16.7948C6.17072 16.2841 6.45498 15.9998 6.98585 15.4689C7.35136 15.1034 7.94617 15.1034 8.31167 15.4689C8.67811 15.8354 8.67811 16.4283 8.31167 16.7948L6.98585 18.1206ZM9.63756 20.7723C9.27112 21.1387 8.67818 21.1387 8.31174 20.7723C7.94617 20.4067 7.94617 19.812 8.31174 19.4464L9.63756 18.1206C10.0032 17.755 10.5979 17.7551 10.9634 18.1206C11.3289 18.4862 11.3289 19.0809 10.9634 19.4464L9.63756 20.7723ZM10.9634 23.4239C10.5979 23.0584 10.5979 22.4636 10.9634 22.0981L12.2893 20.7723C12.6557 20.4059 13.2486 20.4059 13.6151 20.7723C13.9815 21.1388 13.9815 21.7317 13.6151 22.0981L12.2893 23.4239C11.9237 23.7894 11.3289 23.7894 10.9634 23.4239ZM16.2667 24.7497L14.9408 26.0755C14.5744 26.442 13.9815 26.442 13.615 26.0756C13.2495 25.71 13.2495 25.1153 13.615 24.7498L14.9408 23.4239C14.9408 23.424 14.9409 23.4239 14.9408 23.4239C15.3064 23.0586 15.901 23.0585 16.2665 23.4238C16.2665 23.4237 16.2666 23.4238 16.2665 23.4238C16.6318 23.7894 16.6321 24.3843 16.2667 24.7497ZM18.9184 27.4015C18.552 27.7678 17.959 27.7679 17.5925 27.4015L16.9296 26.7385L17.5925 26.0756C17.8249 25.8433 18.0075 25.5798 18.1414 25.2987L18.9184 26.0756C19.2848 26.442 19.2848 27.035 18.9184 27.4015ZM26.8734 19.4464C26.5079 19.8119 25.9132 19.8119 25.5476 19.4464L21.0072 14.906C20.6411 14.5399 20.0475 14.5399 19.6814 14.906C19.3152 15.2721 19.3152 15.8657 19.6814 16.2318L24.2218 20.7722C24.5873 21.1378 24.5873 21.7325 24.2218 22.098C23.8555 22.4642 23.2628 22.4646 22.8961 22.0982L18.4141 17.6163C18.048 17.2501 17.4544 17.2501 17.0883 17.6163C16.7222 17.9824 16.7222 18.576 17.0883 18.9421L21.5701 23.4239C21.9356 23.7894 21.9356 24.3842 21.5701 24.7497C21.2045 25.1153 20.6098 25.1153 20.2442 24.7497L17.5925 22.098C17.084 21.5894 16.4274 21.3171 15.7602 21.2803C15.7228 20.5872 15.4355 19.9409 14.9409 19.4463C14.4463 18.9518 13.8 18.6644 13.107 18.627C13.0701 17.9598 12.7978 17.3033 12.2893 16.7947C11.7947 16.3001 11.1484 16.0128 10.4553 15.9754C10.4185 15.3081 10.1462 14.6516 9.63756 14.143C8.59443 13.1 6.9296 13.0499 5.82585 13.9911C5.6386 13.5257 5.55528 13.0042 5.47428 12.4931C5.37609 11.8736 5.28134 11.2817 4.99009 10.8034L10.5694 5.22414C11.4413 5.57902 12.2696 5.54652 13.0327 5.51595C13.4826 5.49783 13.9213 5.48058 14.3798 5.53996C14.1182 5.72689 13.8623 5.94083 13.6151 6.18808L10.9634 8.83972C9.86681 9.93629 9.86687 11.7206 10.9634 12.8172C12.0626 13.9164 13.8416 13.9164 14.9409 12.8172L17.5925 10.1655C17.959 9.79917 18.5519 9.7991 18.9184 10.1655L26.8733 18.1205C27.2389 18.4862 27.2389 19.0809 26.8734 19.4464ZM22.3056 5.32233C22.5623 5.14295 22.5089 5.17708 24.4049 3.28125C25.265 4.14138 24.3645 3.24457 29.7321 8.58335L27.64 10.6568L22.3056 5.32233Z" fill="#4B9A4E"/>
<path d="M23.0376 21.9568C23.0376 21.9568 23.0376 21.9568 23.0376 21.9568C23.0376 21.9568 23.0376 21.9568 23.0376 21.9568C23.0376 21.9568 23.0376 21.9568 23.0376 21.9568C23.0376 21.9568 23.0376 21.9568 23.0376 21.9568C23.0376 21.9568 23.0376 21.9568 23.0376 21.9568C23.0376 21.9568 23.0376 21.9568 23.0376 21.9568C23.0376 21.9568 23.0376 21.9568 23.0376 21.9568C23.0376 21.9568 23.0376 21.9568 23.0376 21.9568C23.0376 21.9568 23.0376 21.9568 23.0376 21.9568C23.0376 21.9568 23.0376 21.9568 23.0376 21.9568C23.0376 21.9568 23.0376 21.9568 23.0376 21.9568C23.0376 21.9568 23.0376 21.9568 23.0376 21.9568C23.0376 21.9568 23.0376 21.9568 23.0376 21.9568C23.0376 21.9568 23.0376 21.9568 23.0376 21.9568C23.0375 21.9568 23.0375 21.9568 23.0375 21.9568C23.0375 21.9568 23.0375 21.9568 23.0375 21.9568C23.0375 21.9568 23.0375 21.9568 23.0375 21.9568C23.0375 21.9568 23.0375 21.9568 23.0375 21.9568C23.0375 21.9568 23.0375 21.9568 23.0375 21.9568C23.0375 21.9568 23.0375 21.9568 23.0375 21.9568C23.0375 21.9568 23.0375 21.9568 23.0375 21.9568C23.0375 21.9568 23.0375 21.9568 23.0375 21.9568C23.0375 21.9568 23.0375 21.9568 23.0375 21.9568C23.0375 21.9568 23.0375 21.9568 23.0375 21.9568C23.0375 21.9568 23.0375 21.9568 23.0375 21.9568C23.0375 21.9568 23.0375 21.9568 23.0375 21.9568C23.0375 21.9568 23.0375 21.9568 23.0375 21.9568C23.0375 21.9568 23.0375 21.9568 23.0375 21.9568C23.0375 21.9568 23.0375 21.9568 23.0375 21.9568C23.0375 21.9568 23.0375 21.9568 23.0375 21.9568C23.0375 21.9568 23.0375 21.9568 23.0375 21.9568C23.0375 21.9568 23.0375 21.9568 23.0375 21.9568C23.0375 21.9568 23.0375 21.9568 23.0375 21.9568C23.0375 21.9568 23.0375 21.9568 23.0375 21.9568C23.0375 21.9568 23.0375 21.9568 23.0375 21.9568C23.0375 21.9568 23.0375 21.9568 23.0375 21.9568C23.0375 21.9568 23.0375 21.9568 23.0375 21.9568C23.0375 21.9568 23.0375 21.9568 23.0375 21.9568C23.0375 21.9568 23.0375 21.9568 23.0375 21.9568C23.0375 21.9568 23.0375 21.9568 23.0375 21.9568C23.0375 21.9568 23.0375 21.9568 23.0375 21.9568C23.0375 21.9568 23.0375 21.9568 23.0375 21.9568C23.0375 21.9568 23.0375 21.9568 23.0375 21.9568C23.0375 21.9568 23.0375 21.9568 23.0375 21.9568C23.0375 21.9568 23.0375 21.9568 23.0375 21.9568C23.0375 21.9568 23.0375 21.9568 23.0375 21.9568C23.0375 21.9568 23.0375 21.9568 23.0375 21.9568C23.0375 21.9568 23.0375 21.9568 23.0375 21.9568C23.0375 21.9568 23.0375 21.9568 23.0375 21.9568C23.0375 21.9568 23.0375 21.9568 23.0375 21.9568C23.0375 21.9568 23.0375 21.9568 23.0375 21.9568C23.0375 21.9568 23.0375 21.9568 23.0375 21.9568C23.0375 21.9568 23.0375 21.9568 23.0375 21.9568C23.0375 21.9568 23.0375 21.9568 23.0375 21.9568C23.0375 21.9568 23.0375 21.9568 23.0375 21.9568C23.0375 21.9568 23.0375 21.9568 23.0375 21.9568C23.0375 21.9568 23.0375 21.9568 23.0375 21.9568C23.0375 21.9568 23.0375 21.9568 23.0375 21.9568C23.0375 21.9568 23.0375 21.9568 23.0375 21.9568C23.0375 21.9568 23.0375 21.9568 23.0375 21.9568C23.0375 21.9568 23.0375 21.9568 23.0375 21.9568C23.0375 21.9568 23.0375 21.9568 23.0375 21.9568C23.0375 21.9568 23.0375 21.9568 23.0375 21.9568C23.0375 21.9568 23.0375 21.9568 23.0375 21.9568C23.0375 21.9568 23.0375 21.9568 23.0375 21.9568C23.0375 21.9568 23.0375 21.9568 23.0375 21.9568C23.0375 21.9568 23.0375 21.9568 23.0375 21.9568C23.0375 21.9568 23.0375 21.9568 23.0375 21.9568C23.0375 21.9568 23.0375 21.9568 23.0375 21.9568C23.0375 21.9568 23.0375 21.9568 23.0375 21.9568C23.0375 21.9568 23.0375 21.9568 23.0375 21.9568C23.0375 21.9568 23.0375 21.9568 23.0375 21.9568C23.0375 21.9568 23.0375 21.9568 23.0375 21.9568C23.0375 21.9568 23.0375 21.9568 23.0375 21.9568C23.0375 21.9568 23.0375 21.9568 23.0375 21.9568C23.0375 21.9568 23.0375 21.9568 23.0375 21.9568C23.0375 21.9568 23.0375 21.9568 23.0375 21.9568C23.0375 21.9568 23.0375 21.9568 23.0375 21.9568C23.0375 21.9568 23.0375 21.9568 23.0375 21.9568C23.0375 21.9568 23.0375 21.9568 23.0375 21.9568C23.0375 21.9568 23.0375 21.9568 23.0375 21.9568C23.0375 21.9568 23.0375 21.9568 23.0375 21.9568C23.0375 21.9568 23.0375 21.9568 23.0375 21.9568C23.0375 21.9568 23.0375 21.9568 23.0375 21.9568C23.0375 21.9568 23.0375 21.9568 23.0375 21.9568C23.0375 21.9568 23.0375 21.9568 23.0375 21.9568C23.0375 21.9568 23.0375 21.9568 23.0375 21.9568C23.0375 21.9568 23.0375 21.9568 23.0375 21.9568C23.0375 21.9568 23.0375 21.9568 23.0375 21.9568C23.0375 21.9568 23.0375 21.9568 23.0375 21.9568C23.0375 21.9568 23.0375 21.9568 23.0375 21.9568C23.0375 21.9568 23.0375 21.9568 23.0375 21.9568C23.0375 21.9568 23.0375 21.9568 23.0375 21.9568C23.0375 21.9568 23.0375 21.9568 23.0375 21.9568C23.0375 21.9568 23.0375 21.9568 23.0375 21.9568C23.0375 21.9568 23.0375 21.9568 23.0375 21.9568C23.0375 21.9568 23.0375 21.9568 23.0375 21.9568C23.0375 21.9568 23.0375 21.9568 23.0375 21.9568C23.0375 21.9568 23.0375 21.9568 23.0375 21.9568C23.0375 21.9568 23.0375 21.9568 23.0375 21.9568C23.0375 21.9568 23.0375 21.9568 23.0375 21.9568C23.0375 21.9568 23.0375 21.9568 23.0375 21.9568C23.0375 21.9568 23.0375 21.9568 23.0375 21.9568C23.0375 21.9568 23.0375 21.9568 23.0375 21.9568C23.0375 21.9568 23.0375 21.9568 23.0375 21.9568C23.0375 21.9568 23.0375 21.9568 23.0375 21.9568C23.0375 21.9568 23.0375 21.9568 23.0375 21.9568C23.0375 21.9568 23.0375 21.9568 23.0375 21.9568C22.7547 22.2396 22.7547 22.2396 22.7547 22.2396C22.7547 22.2396 22.7547 22.2396 22.7547 22.2396C22.7547 22.2396 22.7547 22.2396 22.7547 22.2396C22.7547 22.2396 22.7547 22.2396 22.7547 22.2396C22.7547 22.2396 22.7547 22.2396 22.7547 22.2396C22.7547 22.2396 22.7547 22.2396 22.7547 22.2396C22.7547 22.2396 22.7547 22.2396 22.7547 22.2396C22.7547 22.2396 22.7547 22.2396 22.7547 22.2396C22.7547 22.2396 22.7547 22.2396 22.7547 22.2396C22.7547 22.2396 22.7547 22.2396 22.7547 22.2396C22.7547 22.2396 22.7547 22.2396 22.7547 22.2396C22.7547 22.2396 22.7547 22.2396 22.7547 22.2396C22.7547 22.2396 22.7547 22.2396 22.7547 22.2396C22.7547 22.2396 22.7547 22.2396 22.7547 22.2396C22.7547 22.2396 22.7547 22.2396 22.7547 22.2396C22.7547 22.2396 22.7547 22.2396 22.7547 22.2396C22.7547 22.2396 22.7547 22.2396 22.7547 22.2396C22.7547 22.2396 22.7547 22.2396 22.7547 22.2396C22.7547 22.2396 22.7547 22.2396 22.7547 22.2396C22.7547 22.2396 22.7547 22.2396 22.7547 22.2396C22.7547 22.2396 22.7547 22.2396 22.7547 22.2396C22.7547 22.2396 22.7547 22.2396 22.7547 22.2396C22.7547 22.2396 22.7547 22.2396 22.7547 22.2396C22.7547 22.2396 22.7547 22.2396 22.7547 22.2396C22.7547 22.2396 22.7547 22.2396 22.7547 22.2396C22.7547 22.2396 22.7547 22.2396 22.7547 22.2396C22.7547 22.2396 22.7547 22.2396 22.7547 22.2396C22.7547 22.2396 22.7547 22.2396 22.7547 22.2396C22.7547 22.2396 22.7547 22.2396 22.7547 22.2396C22.7547 22.2396 22.7547 22.2396 22.7547 22.2396C22.7547 22.2396 22.7547 22.2396 22.7547 22.2396C22.7547 22.2396 22.7547 22.2396 22.7547 22.2396C22.7547 22.2396 22.7547 22.2396 22.7547 22.2396C22.7547 22.2396 22.7547 22.2396 22.7547 22.2396C22.7547 22.2396 22.7547 22.2396 22.7547 22.2396C22.7547 22.2396 22.7547 22.2396 22.7547 22.2396C22.7547 22.2396 22.7547 22.2396 22.7547 22.2396C22.7547 22.2396 22.7547 22.2396 22.7547 22.2396C22.7547 22.2396 22.7547 22.2396 22.7547 22.2396C22.7547 22.2396 22.7547 22.2396 22.7547 22.2396C22.7547 22.2396 22.7547 22.2396 22.7547 22.2396C22.7547 22.2396 22.7547 22.2396 22.7547 22.2396C22.7547 22.2396 22.7547 22.2396 22.7547 22.2396C22.7547 22.2396 22.7547 22.2396 22.7547 22.2396C22.7547 22.2396 22.7547 22.2396 22.7547 22.2396C22.7547 22.2396 22.7547 22.2396 22.7547 22.2396C22.7547 22.2396 22.7547 22.2396 22.7547 22.2396C22.7547 22.2396 22.7547 22.2396 22.7547 22.2396C22.7547 22.2396 22.7547 22.2396 22.7547 22.2396C22.7547 22.2396 22.7547 22.2396 22.7547 22.2396C22.7547 22.2396 22.7547 22.2396 22.7547 22.2396C22.7547 22.2396 22.7547 22.2396 22.7547 22.2396C22.7547 22.2396 22.7547 22.2396 22.7547 22.2396C22.7547 22.2396 22.7547 22.2396 22.7547 22.2396C22.7547 22.2396 22.7547 22.2396 22.7547 22.2396C22.7547 22.2396 22.7547 22.2396 22.7547 22.2396C22.7547 22.2396 22.7547 22.2396 22.7547 22.2396C22.7547 22.2396 22.7547 22.2396 22.7547 22.2396C22.7547 22.2396 22.7547 22.2396 22.7547 22.2396C22.7547 22.2396 22.7547 22.2396 22.7547 22.2396C22.7547 22.2396 22.7547 22.2396 22.7547 22.2396C22.7547 22.2396 22.7547 22.2396 22.7547 22.2396C22.7547 22.2396 22.7547 22.2396 22.7547 22.2396C22.7547 22.2396 22.7547 22.2396 22.7547 22.2396C22.7547 22.2396 22.7547 22.2396 22.7547 22.2396C22.7547 22.2396 22.7547 22.2396 22.7547 22.2396C22.7547 22.2396 22.7547 22.2396 22.7547 22.2396C22.7547 22.2396 22.7547 22.2396 22.7547 22.2396C22.7547 22.2396 22.7547 22.2396 22.7547 22.2396C22.7547 22.2396 22.7547 22.2396 22.7547 22.2396C22.7547 22.2396 22.7547 22.2396 22.7547 22.2396C22.7547 22.2396 22.7547 22.2396 22.7547 22.2396C22.7547 22.2396 22.7547 22.2396 22.7547 22.2396C22.7547 22.2396 22.7547 22.2396 22.7547 22.2396C22.7547 22.2396 22.7547 22.2396 22.7547 22.2396C22.7547 22.2396 22.7547 22.2396 22.7547 22.2396C22.7547 22.2396 22.7547 22.2396 22.7547 22.2396C22.7547 22.2396 22.7547 22.2396 22.7547 22.2396C22.7547 22.2396 22.7547 22.2396 22.7547 22.2396C22.7547 22.2396 22.7547 22.2396 22.7547 22.2396C22.7547 22.2396 22.7547 22.2396 22.7547 22.2396C22.7547 22.2396 22.7547 22.2396 22.7547 22.2396C22.7547 22.2396 22.7547 22.2396 22.7547 22.2396C22.7547 22.2396 22.7547 22.2396 22.7547 22.2396C22.7547 22.2396 22.7547 22.2396 22.7547 22.2396C22.7547 22.2396 22.7547 22.2396 22.7547 22.2396C22.7547 22.2396 22.7547 22.2396 22.7547 22.2396C22.7547 22.2396 22.7547 22.2396 22.7547 22.2396C22.7547 22.2396 22.7547 22.2396 22.7547 22.2396C22.7547 22.2396 22.7547 22.2396 22.7547 22.2396C22.7547 22.2396 22.7547 22.2396 22.7547 22.2396C22.7547 22.2396 22.7547 22.2396 22.7547 22.2396C22.7547 22.2396 22.7547 22.2396 22.7547 22.2396C22.7547 22.2396 22.7547 22.2396 22.7547 22.2396C22.7547 22.2396 22.7547 22.2396 22.7547 22.2396C22.7547 22.2396 22.7547 22.2396 22.7547 22.2396C22.7547 22.2396 22.7547 22.2396 22.7547 22.2396C22.7547 22.2396 22.7547 22.2396 22.7547 22.2396C22.7547 22.2396 22.7547 22.2396 22.7547 22.2396C22.7547 22.2396 22.7547 22.2396 22.7547 22.2396C22.7547 22.2396 22.7547 22.2396 22.7547 22.2396C22.7547 22.2396 22.7547 22.2396 22.7547 22.2396C22.7547 22.2396 22.7547 22.2396 22.7547 22.2396C22.7547 22.2396 22.7547 22.2396 22.7547 22.2396C22.7547 22.2396 22.7547 22.2396 22.7547 22.2396C22.7547 22.2396 22.7547 22.2396 22.7547 22.2396C22.7547 22.2396 22.7547 22.2397 22.7547 22.2397C22.7547 22.2397 22.7547 22.2397 22.7547 22.2397C22.7547 22.2397 22.7547 22.2397 22.7547 22.2397C22.7547 22.2397 22.7547 22.2397 22.7547 22.2397C22.7547 22.2397 22.7547 22.2397 22.7547 22.2397C22.7547 22.2397 22.7547 22.2397 22.7547 22.2397C22.7547 22.2397 22.7547 22.2397 22.7547 22.2397C22.7547 22.2397 22.7547 22.2397 22.7547 22.2397C22.7547 22.2397 22.7547 22.2397 22.7547 22.2397C22.7547 22.2397 22.7547 22.2397 22.7547 22.2397C22.7547 22.2397 22.7547 22.2397 22.7547 22.2397C22.7547 22.2397 22.7547 22.2397 22.7547 22.2397C22.7547 22.2397 22.7547 22.2397 22.7547 22.2397C22.7547 22.2397 22.7547 22.2397 22.7547 22.2397C22.7547 22.2397 22.7547 22.2397 22.7547 22.2397C22.7547 22.2397 22.7547 22.2397 22.7547 22.2397C22.7547 22.2397 22.7547 22.2397 22.7547 22.2397C22.7547 22.2397 22.7547 22.2397 22.7547 22.2397C22.7547 22.2397 22.7547 22.2397 22.7547 22.2397C22.7547 22.2397 22.7547 22.2397 22.7547 22.2397C22.7547 22.2397 22.7547 22.2397 22.7547 22.2397C22.7547 22.2397 22.7547 22.2397 22.7547 22.2397C22.7547 22.2397 22.7547 22.2397 22.7547 22.2397C22.7547 22.2397 22.7547 22.2397 22.7547 22.2397C22.7547 22.2397 22.7547 22.2397 22.7547 22.2397C22.7547 22.2397 22.7547 22.2397 22.7547 22.2397C22.7547 22.2397 22.7547 22.2397 22.7547 22.2397C22.7547 22.2397 22.7547 22.2397 22.7547 22.2397C22.7547 22.2397 22.7547 22.2397 22.7547 22.2397C22.7547 22.2397 22.7547 22.2397 22.7547 22.2397C22.7547 22.2397 22.7547 22.2397 22.7547 22.2397C22.7547 22.2397 22.7547 22.2397 22.7547 22.2397C22.7547 22.2397 22.7547 22.2397 22.7547 22.2397C22.7547 22.2397 22.7547 22.2397 22.7547 22.2397C22.7547 22.2397 22.7547 22.2397 22.7547 22.2397C22.7547 22.2397 22.7547 22.2397 22.7547 22.2397C22.7547 22.2397 22.7547 22.2397 22.7547 22.2397C22.7547 22.2397 22.7547 22.2397 22.7547 22.2397C22.7547 22.2397 22.7547 22.2397 22.7547 22.2397C22.7547 22.2397 22.7547 22.2397 22.7547 22.2397C22.7547 22.2397 22.7547 22.2397 22.7547 22.2397C22.7547 22.2397 22.7547 22.2397 22.7547 22.2397C22.7547 22.2397 22.7547 22.2397 22.7547 22.2397C22.7547 22.2397 22.7547 22.2397 22.7547 22.2397C22.7547 22.2397 22.7547 22.2397 22.7547 22.2397C22.7547 22.2397 22.7547 22.2397 22.7547 22.2397C22.7547 22.2397 22.7547 22.2397 22.7547 22.2397C22.7547 22.2397 22.7547 22.2397 22.7547 22.2397C22.7547 22.2397 22.7547 22.2397 22.7547 22.2397C22.7547 22.2397 22.7547 22.2397 22.7547 22.2397C22.7547 22.2397 22.7547 22.2397 22.7547 22.2397C22.7547 22.2397 22.7547 22.2397 22.7547 22.2397C22.7547 22.2397 22.7547 22.2397 22.7547 22.2397C22.7547 22.2397 22.7547 22.2397 22.7547 22.2397C22.7547 22.2397 22.7547 22.2397 22.7547 22.2397C22.7547 22.2397 22.7547 22.2397 22.7547 22.2397C22.7547 22.2397 22.7547 22.2397 22.7547 22.2397C22.7547 22.2397 22.7547 22.2397 22.7547 22.2397C22.7547 22.2397 22.7547 22.2397 22.7547 22.2397C22.7547 22.2397 22.7547 22.2397 22.7547 22.2397C22.7547 22.2397 22.7547 22.2397 22.7547 22.2397C22.7547 22.2397 22.7547 22.2397 22.7547 22.2397C22.7547 22.2397 22.7547 22.2397 22.7547 22.2397C22.7547 22.2397 22.7547 22.2397 22.7547 22.2397C22.7547 22.2397 22.7547 22.2397 22.7547 22.2397C22.7547 22.2397 22.7547 22.2397 22.7547 22.2397C22.7547 22.2397 22.7547 22.2397 22.7547 22.2397C22.7547 22.2397 22.7547 22.2397 22.7547 22.2397C22.7547 22.2397 22.7547 22.2397 22.7547 22.2397C22.7547 22.2397 22.7547 22.2397 22.7547 22.2397C22.7547 22.2397 22.7547 22.2397 22.7547 22.2397C22.7547 22.2397 22.7547 22.2397 22.7547 22.2397C22.7547 22.2397 22.7547 22.2397 22.7547 22.2397C22.7547 22.2397 22.7547 22.2397 22.7547 22.2397C22.7547 22.2397 22.7547 22.2397 22.7547 22.2397C22.7547 22.2397 22.7547 22.2397 22.7547 22.2397C22.7547 22.2397 22.7547 22.2397 22.7547 22.2397C22.7547 22.2397 22.7547 22.2397 22.7547 22.2397C22.7547 22.2397 22.7547 22.2397 22.7547 22.2397C22.7547 22.2397 22.7547 22.2397 22.7547 22.2397C22.7547 22.2397 22.7547 22.2397 22.7547 22.2397C22.7547 22.2397 22.7547 22.2397 22.7547 22.2397C22.7547 22.2397 22.7547 22.2397 22.7547 22.2397C22.7547 22.2397 22.7547 22.2397 22.7547 22.2397C22.7547 22.2397 22.7547 22.2397 22.7547 22.2397C22.7547 22.2397 22.7547 22.2397 22.7547 22.2397C22.7547 22.2397 22.7547 22.2397 22.7547 22.2397C22.7547 22.2397 22.7547 22.2397 22.7547 22.2397C22.7547 22.2397 22.7547 22.2397 22.7547 22.2397C22.7547 22.2397 22.7547 22.2397 22.7547 22.2397C22.7547 22.2397 22.7547 22.2397 22.7547 22.2397C22.7547 22.2397 22.7547 22.2397 22.7547 22.2397C22.7547 22.2397 22.7547 22.2397 22.7547 22.2397C22.7547 22.2397 22.7547 22.2397 22.7547 22.2397C22.7547 22.2397 22.7547 22.2397 22.7547 22.2397C22.7547 22.2397 22.7547 22.2397 22.7547 22.2397C22.7547 22.2397 22.7547 22.2397 22.7547 22.2397C22.7547 22.2397 22.7547 22.2397 22.7547 22.2397C22.7547 22.2397 22.7547 22.2397 22.7547 22.2397C22.7547 22.2397 22.7547 22.2397 22.7547 22.2397C22.7547 22.2397 22.7547 22.2397 22.7547 22.2397C22.7547 22.2397 22.7547 22.2397 22.7547 22.2397C22.7547 22.2397 22.7547 22.2397 22.7547 22.2397C22.7547 22.2397 22.7547 22.2397 22.7547 22.2397C22.7547 22.2397 22.7547 22.2397 22.7547 22.2397C22.7547 22.2397 22.7547 22.2397 22.7547 22.2397C22.7547 22.2397 22.7547 22.2397 22.7547 22.2397C22.7547 22.2397 22.7547 22.2397 22.7547 22.2397C22.7547 22.2397 22.7547 22.2397 22.7547 22.2397C22.7547 22.2397 22.7547 22.2397 22.7547 22.2397C22.7547 22.2397 22.7547 22.2397 22.7547 22.2397C22.7547 22.2397 22.7547 22.2397 22.7547 22.2397C22.7547 22.2397 22.7547 22.2397 22.7547 22.2397C22.7547 22.2397 22.7547 22.2397 22.7547 22.2397C22.7547 22.2397 22.7547 22.2397 22.7547 22.2397C22.7547 22.2397 22.7547 22.2397 22.7547 22.2397C22.7547 22.2397 22.7547 22.2397 22.7547 22.2397C22.7547 22.2397 22.7547 22.2397 22.7547 22.2397C22.7547 22.2397 22.7547 22.2397 22.7547 22.2397C22.7547 22.2397 22.7547 22.2397 22.7547 22.2397C22.7547 22.2397 22.7547 22.2397 22.7547 22.2397C22.7547 22.2397 22.7547 22.2397 22.7547 22.2397C22.7547 22.2397 22.7547 22.2397 22.7547 22.2397C22.7547 22.2397 22.7547 22.2397 22.7547 22.2397C22.7547 22.2397 22.7547 22.2397 22.7547 22.2397C22.7547 22.2397 22.7547 22.2397 22.7547 22.2397C22.7547 22.2397 22.7547 22.2397 22.7547 22.2397C22.7547 22.2397 22.7547 22.2397 22.7547 22.2397C22.7547 22.2397 22.7547 22.2397 22.7547 22.2397C22.7547 22.2397 22.7547 22.2397 22.7547 22.2397C22.7547 22.2397 22.7547 22.2397 22.7547 22.2397C22.7547 22.2397 22.7547 22.2397 22.7547 22.2397C22.7547 22.2397 22.7547 22.2397 22.7547 22.2397C22.7547 22.2397 22.7547 22.2397 22.7547 22.2397C22.7547 22.2397 22.7547 22.2397 22.7547 22.2397C22.7547 22.2397 22.7547 22.2397 22.7547 22.2397C22.7547 22.2397 22.7547 22.2397 22.7547 22.2397C22.7547 22.2397 22.7547 22.2397 22.7547 22.2397C22.7547 22.2397 22.7547 22.2397 22.7547 22.2397C22.7547 22.2397 22.7547 22.2397 22.7547 22.2397C22.7547 22.2397 22.7547 22.2397 22.7547 22.2397C22.7547 22.2397 22.7547 22.2397 22.7547 22.2397C22.7547 22.2397 22.7547 22.2397 22.7547 22.2397C22.7547 22.2397 22.7547 22.2397 22.7547 22.2397C22.7547 22.2397 22.7547 22.2397 22.7547 22.2397C22.7547 22.2397 22.7547 22.2397 22.7547 22.2397C22.7547 22.2397 22.7547 22.2397 22.7547 22.2397C22.7547 22.2397 22.7547 22.2397 22.7547 22.2397C22.7547 22.2397 22.7547 22.2397 22.7547 22.2397C22.7547 22.2397 22.7547 22.2397 22.7547 22.2397C22.7547 22.2397 22.7547 22.2397 22.7547 22.2397C22.7547 22.2397 22.7547 22.2397 22.7547 22.2397C22.7547 22.2397 22.7547 22.2397 22.7547 22.2397C22.7547 22.2397 22.7547 22.2397 22.7547 22.2397C22.7547 22.2397 22.7547 22.2397 22.7547 22.2397C22.7547 22.2397 22.7547 22.2397 22.7547 22.2397C22.7547 22.2397 22.7547 22.2397 22.7547 22.2397C22.7547 22.2397 22.7547 22.2397 22.7547 22.2397C22.7547 22.2397 22.7547 22.2397 22.7547 22.2397C22.7547 22.2397 22.7547 22.2397 22.7547 22.2397C22.7547 22.2397 22.7547 22.2397 22.7547 22.2397C22.7547 22.2397 22.7547 22.2397 22.7547 22.2397C22.7547 22.2397 22.7547 22.2397 22.7547 22.2397C22.7547 22.2397 22.7547 22.2397 22.7547 22.2397C22.7547 22.2397 22.7547 22.2397 22.7547 22.2397C22.7547 22.2397 22.7547 22.2397 22.7547 22.2397C22.7547 22.2397 22.7547 22.2397 22.7547 22.2397C22.7547 22.2397 22.7547 22.2397 22.7547 22.2397C22.7547 22.2397 22.7547 22.2397 22.7547 22.2397C22.7547 22.2397 22.7547 22.2397 22.7547 22.2397C22.7547 22.2397 22.7547 22.2397 22.7547 22.2397C22.7547 22.2397 22.7547 22.2397 22.7547 22.2397C22.7547 22.2397 22.7547 22.2397 22.7547 22.2397C22.7547 22.2397 22.7547 22.2397 22.7547 22.2397C22.7547 22.2397 22.7547 22.2397 22.7547 22.2397C22.7547 22.2397 22.7547 22.2397 22.7547 22.2397C22.7547 22.2397 22.7547 22.2397 22.7547 22.2397C22.7547 22.2397 22.7547 22.2397 22.7547 22.2397C22.7547 22.2397 22.7547 22.2397 22.7547 22.2397C22.7547 22.2397 22.7547 22.2397 22.7547 22.2397C22.7547 22.2397 22.7547 22.2397 22.7547 22.2397C22.7547 22.2397 22.7547 22.2397 22.7547 22.2397C22.7547 22.2397 22.7547 22.2397 22.7547 22.2397C22.7547 22.2397 22.7547 22.2397 22.7547 22.2397C22.7547 22.2397 22.7547 22.2397 22.7547 22.2397C22.7547 22.2397 22.7547 22.2397 22.7547 22.2397C22.7547 22.2397 22.7547 22.2397 22.7547 22.2397C22.7547 22.2397 22.7547 22.2397 22.7547 22.2397C22.7547 22.2397 22.7547 22.2397 22.7547 22.2397C22.7547 22.2397 22.7547 22.2397 23.0376 21.9568C23.0376 21.9568 23.0376 21.9568 23.0376 21.9568C23.0376 21.9568 23.0376 21.9568 23.0376 21.9568C23.0376 21.9568 23.0376 21.9568 23.0376 21.9568C23.0376 21.9568 23.0376 21.9568 23.0376 21.9568C23.0376 21.9568 23.0376 21.9568 23.0376 21.9568C23.0376 21.9568 23.0376 21.9568 23.0376 21.9568C23.0376 21.9568 23.0376 21.9568 23.0376 21.9568C23.0376 21.9568 23.0376 21.9568 23.0376 21.9568C23.0376 21.9568 23.0376 21.9568 23.0376 21.9568C23.0376 21.9568 23.0376 21.9568 23.0376 21.9568C23.0376 21.9568 23.0376 21.9568 23.0376 21.9568C23.0376 21.9568 23.0376 21.9568 23.0376 21.9568C23.0376 21.9568 23.0376 21.9568 23.0376 21.9568C23.0376 21.9568 23.0376 21.9568 23.0376 21.9568C23.0376 21.9568 23.0376 21.9568 23.0376 21.9568C23.0376 21.9568 23.0376 21.9568 23.0376 21.9568C23.0376 21.9568 23.0376 21.9568 23.0376 21.9568C23.0376 21.9568 23.0376 21.9568 23.0376 21.9568C23.0376 21.9568 23.0376 21.9568 23.0376 21.9568C23.0376 21.9568 23.0376 21.9568 23.0376 21.9568C23.0376 21.9568 23.0376 21.9568 23.0376 21.9568C23.0376 21.9568 23.0376 21.9568 23.0376 21.9568C23.0376 21.9568 23.0376 21.9568 23.0376 21.9568C23.0376 21.9568 23.0376 21.9568 23.0376 21.9568C23.0376 21.9568 23.0376 21.9568 23.0376 21.9568C23.0376 21.9568 23.0376 21.9568 23.0376 21.9568C23.0376 21.9568 23.0376 21.9568 23.0376 21.9568C23.0376 21.9568 23.0376 21.9568 23.0376 21.9568C23.0376 21.9568 23.0376 21.9568 23.0376 21.9568C23.0376 21.9568 23.0376 21.9568 23.0376 21.9568C23.0376 21.9568 23.0376 21.9568 23.0376 21.9568C23.0376 21.9568 23.0376 21.9568 23.0376 21.9568C23.0376 21.9568 23.0376 21.9568 23.0376 21.9568C23.0376 21.9568 23.0376 21.9568 23.0376 21.9568C23.0376 21.9568 23.0376 21.9568 23.0376 21.9568C23.0376 21.9568 23.0376 21.9568 23.0376 21.9568C23.0376 21.9568 23.0376 21.9568 23.0376 21.9568C23.0376 21.9568 23.0376 21.9568 23.0376 21.9568C23.0376 21.9568 23.0376 21.9568 23.0376 21.9568C23.0376 21.9568 23.0376 21.9568 23.0376 21.9568C23.0376 21.9568 23.0376 21.9568 23.0376 21.9568C23.0376 21.9568 23.0376 21.9568 23.0376 21.9568C23.0376 21.9568 23.0376 21.9568 23.0376 21.9568C23.0376 21.9568 23.0376 21.9568 23.0376 21.9568C23.0376 21.9568 23.0376 21.9568 23.0376 21.9568C23.0376 21.9568 23.0376 21.9568 23.0376 21.9568C23.0376 21.9568 23.0376 21.9568 23.0376 21.9568C23.0376 21.9568 23.0376 21.9568 23.0376 21.9568C23.0376 21.9568 23.0376 21.9568 23.0376 21.9568C23.0376 21.9568 23.0376 21.9568 23.0376 21.9568C23.0376 21.9568 23.0376 21.9568 23.0376 21.9568C23.0376 21.9568 23.0376 21.9568 23.0376 21.9568C23.0376 21.9568 23.0376 21.9568 23.0376 21.9568C23.0376 21.9568 23.0376 21.9568 23.0376 21.9568C23.0376 21.9568 23.0376 21.9568 23.0376 21.9568C23.0376 21.9568 23.0376 21.9568 23.0376 21.9568C23.0376 21.9568 23.0376 21.9568 23.0376 21.9568C23.0376 21.9568 23.0376 21.9568 23.0376 21.9568C23.0376 21.9568 23.0376 21.9568 23.0376 21.9568C23.0376 21.9568 23.0376 21.9568 23.0376 21.9568C23.0376 21.9568 23.0376 21.9568 23.0376 21.9568C23.0376 21.9568 23.0376 21.9568 23.0376 21.9568C23.0376 21.9568 23.0376 21.9568 23.0376 21.9568C23.0376 21.9568 23.0376 21.9568 23.0376 21.9568C23.0376 21.9568 23.0376 21.9568 23.0376 21.9568C23.0376 21.9568 23.0376 21.9568 23.0376 21.9568C23.0376 21.9568 23.0376 21.9568 23.0376 21.9568C23.0376 21.9568 23.0376 21.9568 23.0376 21.9568C23.0376 21.9568 23.0376 21.9568 23.0376 21.9568C23.0376 21.9568 23.0376 21.9568 23.0376 21.9568C23.0376 21.9568 23.0376 21.9568 23.0376 21.9568C23.0376 21.9568 23.0376 21.9568 23.0376 21.9568C23.0376 21.9568 23.0376 21.9568 23.0376 21.9568C23.0376 21.9568 23.0376 21.9568 23.0376 21.9568C23.0376 21.9568 23.0376 21.9568 23.0376 21.9568C23.0376 21.9568 23.0376 21.9568 23.0376 21.9568C23.0376 21.9568 23.0376 21.9568 23.0376 21.9568C23.0376 21.9568 23.0376 21.9568 23.0376 21.9568C23.0376 21.9568 23.0376 21.9568 23.0376 21.9568C23.0376 21.9568 23.0376 21.9568 23.0376 21.9568C23.0376 21.9568 23.0376 21.9568 23.0376 21.9568C23.0376 21.9568 23.0376 21.9568 23.0376 21.9568C23.0376 21.9568 23.0376 21.9568 23.0376 21.9568C23.0376 21.9568 23.0376 21.9568 23.0376 21.9568C23.0376 21.9568 23.0376 21.9568 23.0376 21.9568C23.0376 21.9568 23.0376 21.9568 23.0376 21.9568C23.0376 21.9568 23.0376 21.9568 23.0376 21.9568C23.0376 21.9568 23.0376 21.9568 23.0376 21.9568C23.0376 21.9568 23.0376 21.9568 23.0376 21.9568C23.0376 21.9568 23.0376 21.9568 23.0376 21.9568C23.0376 21.9568 23.0376 21.9568 23.0376 21.9568C23.0376 21.9568 23.0376 21.9568 23.0376 21.9568C23.0376 21.9568 23.0376 21.9568 23.0376 21.9568C23.0376 21.9568 23.0376 21.9568 23.0376 21.9568C23.0376 21.9568 23.0376 21.9568 23.0376 21.9568C23.0376 21.9568 23.0376 21.9568 23.0376 21.9568C23.0376 21.9568 23.0376 21.9568 23.0376 21.9568C23.0376 21.9568 23.0376 21.9568 23.0376 21.9568C23.0376 21.9568 23.0376 21.9568 23.0376 21.9568C23.0376 21.9568 23.0376 21.9568 23.0376 21.9568C23.0376 21.9568 23.0376 21.9568 23.0376 21.9568C23.0376 21.9568 23.0376 21.9568 23.0376 21.9568C23.0376 21.9568 23.0376 21.9568 23.0376 21.9568C23.0376 21.9568 23.0376 21.9568 23.0376 21.9568C23.0376 21.9568 23.0376 21.9568 23.0376 21.9568C23.0376 21.9568 23.0376 21.9568 23.0376 21.9568C23.0376 21.9568 23.0376 21.9568 23.0376 21.9568C23.0376 21.9568 23.0376 21.9568 23.0376 21.9568L22.7547 22.2397C22.7547 22.2397 22.7547 22.2397 22.7547 22.2397C22.7547 22.2397 22.7547 22.2397 22.7547 22.2397C22.7547 22.2397 22.7547 22.2397 22.7547 22.2397C22.7547 22.2397 22.7547 22.2397 22.7547 22.2397C22.7547 22.2397 22.7547 22.2397 22.7547 22.2397C22.7547 22.2397 22.7547 22.2397 22.7547 22.2397C22.7547 22.2397 22.7547 22.2397 22.7547 22.2397C22.7547 22.2397 22.7547 22.2397 22.7547 22.2397C22.7547 22.2397 22.7547 22.2397 22.7547 22.2397C22.7547 22.2397 22.7547 22.2397 22.7547 22.2397C22.7547 22.2397 22.7547 22.2397 22.7547 22.2397C22.7547 22.2397 22.7547 22.2397 22.7547 22.2397C22.7547 22.2397 22.7547 22.2397 22.7547 22.2397C22.7547 22.2397 22.7547 22.2397 22.7547 22.2397C22.7547 22.2397 22.7547 22.2397 22.7547 22.2397C22.7547 22.2397 22.7547 22.2397 22.7547 22.2397C22.7547 22.2397 22.7547 22.2397 22.7547 22.2397C22.7547 22.2397 22.7547 22.2397 22.7547 22.2397C22.7547 22.2397 22.7547 22.2397 22.7547 22.2397C22.7547 22.2397 22.7547 22.2397 22.7547 22.2397C22.7547 22.2397 22.7547 22.2397 22.7547 22.2397C22.7547 22.2397 22.7547 22.2397 22.7547 22.2397C22.7547 22.2397 22.7547 22.2397 22.7547 22.2397C22.7547 22.2397 22.7547 22.2397 22.7547 22.2397C22.7547 22.2397 22.7547 22.2397 22.7547 22.2397C22.7547 22.2397 22.7547 22.2397 22.7547 22.2397C22.7547 22.2397 22.7547 22.2397 22.7547 22.2397C22.7547 22.2397 22.7547 22.2397 22.7547 22.2397C22.7547 22.2397 22.7547 22.2397 22.7547 22.2397C22.7547 22.2397 22.7547 22.2397 22.7547 22.2397C22.7547 22.2397 22.7547 22.2397 22.7547 22.2397C22.7547 22.2397 22.7547 22.2397 22.7547 22.2397C22.7547 22.2397 22.7547 22.2397 22.7547 22.2397C22.7547 22.2397 22.7547 22.2397 22.7547 22.2397C22.7547 22.2397 22.7547 22.2397 22.7547 22.2397C22.7547 22.2397 22.7547 22.2397 22.7547 22.2397C22.7547 22.2397 22.7547 22.2397 22.7547 22.2397C22.7547 22.2397 22.7547 22.2397 22.7547 22.2397C22.7547 22.2397 22.7547 22.2397 22.7547 22.2397C22.7547 22.2397 22.7547 22.2397 22.7547 22.2397C22.7547 22.2397 22.7547 22.2397 22.7547 22.2397C22.7547 22.2397 22.7547 22.2397 22.7547 22.2397C22.7547 22.2397 22.7547 22.2397 22.7547 22.2397C22.7547 22.2397 22.7547 22.2397 22.7547 22.2397C22.7547 22.2397 22.7547 22.2397 22.7547 22.2397C22.7547 22.2397 22.7547 22.2397 22.7547 22.2397C22.7547 22.2397 22.7547 22.2397 22.7547 22.2397C22.7547 22.2397 22.7547 22.2397 22.7547 22.2397C22.7547 22.2397 22.7547 22.2397 22.7547 22.2397C22.7547 22.2397 22.7547 22.2397 22.7547 22.2397C22.7547 22.2397 22.7547 22.2397 22.7547 22.2397C22.7547 22.2397 22.7547 22.2397 22.7547 22.2397C22.7547 22.2397 22.7547 22.2397 22.7547 22.2397C22.7547 22.2397 22.7547 22.2397 22.7547 22.2397C22.7547 22.2397 22.7547 22.2397 22.7547 22.2397C22.7547 22.2397 22.7547 22.2397 22.7547 22.2397C22.7547 22.2397 22.7547 22.2397 22.7547 22.2397C22.7547 22.2397 22.7547 22.2397 22.7547 22.2397C22.7547 22.2397 22.7547 22.2397 22.7547 22.2397C22.7547 22.2397 22.7547 22.2397 22.7547 22.2397C22.7547 22.2397 22.7547 22.2397 22.7547 22.2397C22.7547 22.2397 22.7547 22.2397 22.7547 22.2397C22.7547 22.2397 22.7547 22.2397 22.7547 22.2397C22.7547 22.2397 22.7547 22.2397 22.7547 22.2397C22.7547 22.2397 22.7547 22.2397 22.7547 22.2397C22.7547 22.2397 22.7547 22.2397 22.7547 22.2397C22.7547 22.2397 22.7547 22.2397 22.7547 22.2397C22.7547 22.2397 22.7547 22.2397 22.7547 22.2397C22.7547 22.2397 22.7547 22.2397 22.7547 22.2397C22.7547 22.2397 22.7547 22.2397 22.7547 22.2397C22.7547 22.2397 22.7547 22.2397 22.7547 22.2397C22.7547 22.2397 22.7547 22.2397 22.7547 22.2397C22.7547 22.2397 22.7547 22.2397 22.7547 22.2397C22.7547 22.2397 22.7547 22.2397 22.7547 22.2397C22.7547 22.2397 22.7547 22.2397 22.7547 22.2397C22.7547 22.2397 22.7547 22.2397 22.7547 22.2397C22.7547 22.2397 22.7547 22.2397 22.7547 22.2397C22.7547 22.2397 22.7547 22.2397 22.7547 22.2397C22.7547 22.2397 22.7547 22.2397 22.7547 22.2397C22.7547 22.2397 22.7547 22.2397 22.7547 22.2397C22.7547 22.2397 22.7547 22.2397 22.7547 22.2397C22.7547 22.2397 22.7547 22.2397 22.7547 22.2397C22.7547 22.2397 22.7547 22.2397 22.7547 22.2397C22.7547 22.2397 22.7547 22.2397 22.7547 22.2397C22.7547 22.2397 22.7547 22.2397 22.7547 22.2397C22.7547 22.2397 22.7547 22.2397 22.7547 22.2397C22.7547 22.2397 22.7547 22.2397 22.7547 22.2397C22.7547 22.2397 22.7547 22.2397 22.7547 22.2397C22.7547 22.2397 22.7547 22.2397 22.7547 22.2397C22.7547 22.2397 22.7547 22.2397 22.7547 22.2397C22.7547 22.2397 22.7547 22.2397 22.7547 22.2397C22.7547 22.2397 22.7547 22.2397 22.7547 22.2397C22.7547 22.2397 22.7547 22.2397 22.7547 22.2397C22.7547 22.2397 22.7547 22.2397 22.7547 22.2397C22.7547 22.2397 22.7547 22.2397 22.7547 22.2397C22.7547 22.2397 22.7547 22.2397 22.7547 22.2397C22.7547 22.2397 22.7547 22.2397 22.7547 22.2397C22.7547 22.2397 22.7547 22.2397 22.7547 22.2397C22.7547 22.2397 22.7547 22.2397 22.7547 22.2397C22.7547 22.2397 22.7547 22.2397 22.7547 22.2397C22.7547 22.2397 22.7547 22.2397 22.7547 22.2397C22.7547 22.2397 22.7547 22.2397 22.7547 22.2397C22.7547 22.2397 22.7547 22.2397 22.7547 22.2397C22.7547 22.2397 22.7547 22.2397 22.7547 22.2397C22.7547 22.2397 22.7547 22.2397 22.7547 22.2397C22.7547 22.2397 22.7547 22.2397 22.7547 22.2397C22.7547 22.2397 22.7547 22.2397 22.7547 22.2397C22.7547 22.2397 22.7547 22.2397 22.7547 22.2397C23.0376 21.9568 23.0376 21.9568 23.0376 21.9568C23.0376 21.9568 23.0376 21.9568 23.0376 21.9568C23.0376 21.9568 23.0376 21.9568 23.0376 21.9568C23.0376 21.9568 23.0376 21.9568 23.0376 21.9568C23.0376 21.9568 23.0376 21.9568 23.0376 21.9568C23.0376 21.9568 23.0376 21.9568 23.0376 21.9568C23.0376 21.9568 23.0376 21.9568 23.0376 21.9568C23.0376 21.9568 23.0376 21.9568 23.0376 21.9568C23.0376 21.9568 23.0376 21.9568 23.0376 21.9568C23.0376 21.9568 23.0376 21.9568 23.0376 21.9568C23.0376 21.9568 23.0376 21.9568 23.0376 21.9568C23.0376 21.9568 23.0376 21.9568 23.0376 21.9568C23.0376 21.9568 23.0376 21.9568 23.0376 21.9568C23.0376 21.9568 23.0376 21.9568 23.0376 21.9568C23.0376 21.9568 23.0376 21.9568 23.0376 21.9568C23.0376 21.9568 23.0376 21.9568 23.0376 21.9568C23.0376 21.9568 23.0376 21.9568 23.0376 21.9568C23.0376 21.9568 23.0376 21.9568 23.0376 21.9568C23.0376 21.9568 23.0376 21.9568 23.0376 21.9568C23.0376 21.9568 23.0376 21.9568 23.0376 21.9568C23.0376 21.9568 23.0376 21.9568 23.0376 21.9568C23.0376 21.9568 23.0376 21.9568 23.0376 21.9568C23.0376 21.9568 23.0376 21.9568 23.0376 21.9568C23.0376 21.9568 23.0376 21.9568 23.0376 21.9568C23.0376 21.9568 23.0376 21.9568 23.0376 21.9568C23.0376 21.9568 23.0376 21.9568 23.0376 21.9568C23.0376 21.9568 23.0376 21.9568 23.0376 21.9568C23.0376 21.9568 23.0376 21.9568 23.0376 21.9568C23.0376 21.9568 23.0376 21.9568 23.0376 21.9568C23.0376 21.9568 23.0376 21.9568 23.0376 21.9568C23.0376 21.9568 23.0376 21.9568 23.0376 21.9568C23.0376 21.9568 23.0376 21.9568 23.0376 21.9568C23.0376 21.9568 23.0376 21.9568 23.0376 21.9568C23.0376 21.9568 23.0376 21.9568 23.0376 21.9568C23.0376 21.9568 23.0376 21.9568 23.0376 21.9568C23.0376 21.9568 23.0376 21.9568 23.0376 21.9568C23.0376 21.9568 23.0376 21.9568 23.0376 21.9568C23.0376 21.9568 23.0376 21.9568 23.0376 21.9568C23.0376 21.9568 23.0376 21.9568 23.0376 21.9568C23.0376 21.9568 23.0376 21.9568 23.0376 21.9568C23.0376 21.9568 23.0376 21.9568 23.0376 21.9568C23.0376 21.9568 23.0376 21.9568 23.0376 21.9568C23.0376 21.9568 23.0376 21.9568 23.0376 21.9568C23.0376 21.9568 23.0376 21.9568 23.0376 21.9568C23.0376 21.9568 23.0376 21.9568 23.0376 21.9568C23.0376 21.9568 23.0376 21.9568 23.0376 21.9568C23.0376 21.9568 23.0376 21.9568 23.0376 21.9568C23.0376 21.9568 23.0376 21.9568 23.0376 21.9568C23.0376 21.9568 23.0376 21.9568 23.0376 21.9568C23.0376 21.9568 23.0376 21.9568 23.0376 21.9568C23.0376 21.9568 23.0376 21.9568 23.0376 21.9568C23.0376 21.9568 23.0376 21.9568 23.0376 21.9568C23.0376 21.9568 23.0376 21.9568 23.0376 21.9568C23.0376 21.9568 23.0376 21.9568 23.0376 21.9568C23.0376 21.9568 23.0376 21.9568 23.0376 21.9568C23.0376 21.9568 23.0376 21.9568 23.0376 21.9568C23.0376 21.9568 23.0376 21.9568 23.0376 21.9568C23.0376 21.9568 23.0376 21.9568 23.0376 21.9568C23.0376 21.9568 23.0376 21.9568 23.0376 21.9568C23.0376 21.9568 23.0376 21.9568 23.0376 21.9568C23.0376 21.9568 23.0376 21.9568 23.0376 21.9568C23.0376 21.9568 23.0376 21.9568 23.0376 21.9568C23.0376 21.9568 23.0376 21.9568 23.0376 21.9568C23.0376 21.9568 23.0376 21.9568 23.0376 21.9568C23.0376 21.9568 23.0376 21.9568 23.0376 21.9568C23.0376 21.9568 23.0376 21.9568 23.0376 21.9568C23.0376 21.9568 23.0376 21.9568 23.0376 21.9568C23.0376 21.9568 23.0376 21.9568 23.0376 21.9568C23.0376 21.9568 23.0376 21.9568 23.0376 21.9568C23.0376 21.9568 23.0376 21.9568 23.0376 21.9568C23.0376 21.9568 23.0376 21.9568 23.0376 21.9568C23.0376 21.9568 23.0376 21.9568 23.0376 21.9568C23.0376 21.9568 23.0376 21.9568 23.0376 21.9568C23.0376 21.9568 23.0376 21.9568 23.0376 21.9568C23.0376 21.9568 23.0376 21.9568 23.0376 21.9568C23.0376 21.9568 23.0376 21.9568 23.0376 21.9568C23.0376 21.9568 23.0376 21.9568 23.0376 21.9568C23.0376 21.9568 23.0376 21.9568 23.0376 21.9568C23.0376 21.9568 23.0376 21.9568 23.0376 21.9568C23.0376 21.9568 23.0376 21.9568 23.0376 21.9568C23.0376 21.9568 23.0376 21.9568 23.0376 21.9568C23.0376 21.9568 23.0376 21.9568 23.0376 21.9568C23.0376 21.9568 23.0376 21.9568 23.0376 21.9568C23.0376 21.9568 23.0376 21.9568 23.0376 21.9568C23.0376 21.9568 23.0376 21.9568 23.0376 21.9568C23.0376 21.9568 23.0376 21.9568 23.0376 21.9568C23.0376 21.9568 23.0376 21.9568 23.0376 21.9568C23.0376 21.9568 23.0376 21.9568 23.0376 21.9568C23.0376 21.9568 23.0376 21.9568 23.0376 21.9568C23.0376 21.9568 23.0376 21.9568 23.0376 21.9568C23.0376 21.9568 23.0376 21.9568 23.0376 21.9568C23.0376 21.9568 23.0376 21.9568 23.0376 21.9568C23.0376 21.9568 23.0376 21.9568 23.0376 21.9568C23.0376 21.9568 23.0376 21.9568 23.0376 21.9568C23.0376 21.9568 23.0376 21.9568 23.0376 21.9568C23.0376 21.9568 23.0376 21.9568 23.0376 21.9568C23.0376 21.9568 23.0376 21.9568 23.0376 21.9568C23.0376 21.9568 23.0376 21.9568 23.0376 21.9568C23.0376 21.9568 23.0376 21.9568 23.0376 21.9568C23.0376 21.9568 23.0376 21.9568 23.0376 21.9568C23.0376 21.9568 23.0376 21.9568 23.0376 21.9568C23.0376 21.9568 23.0376 21.9568 23.0376 21.9568C23.0376 21.9568 23.0376 21.9568 23.0376 21.9568C23.0376 21.9568 23.0376 21.9568 23.0376 21.9568C23.0376 21.9568 23.0376 21.9568 23.0376 21.9568C23.0376 21.9568 23.0376 21.9568 23.0376 21.9568C23.0376 21.9568 23.0376 21.9568 23.0376 21.9568C23.0376 21.9568 23.0376 21.9568 23.0376 21.9568C23.0376 21.9568 23.0376 21.9568 23.0376 21.9568C23.0376 21.9568 23.0376 21.9568 23.0376 21.9568C23.0376 21.9568 23.0376 21.9568 23.0376 21.9568C23.0376 21.9568 23.0376 21.9568 23.0376 21.9568C23.0376 21.9568 23.0376 21.9568 23.0376 21.9568C23.0376 21.9568 23.0376 21.9568 23.0376 21.9568C23.0376 21.9568 23.0376 21.9568 23.0376 21.9568C23.0376 21.9568 23.0376 21.9568 23.0376 21.9568C23.0376 21.9568 23.0376 21.9568 23.0376 21.9568C23.0376 21.9568 23.0376 21.9568 23.0376 21.9568C23.0376 21.9568 23.0376 21.9568 23.0376 21.9568C23.0376 21.9568 23.0376 21.9568 23.0376 21.9568C23.0376 21.9568 23.0376 21.9568 23.0376 21.9568C23.0376 21.9568 23.0376 21.9568 23.0376 21.9568C23.0376 21.9568 23.0376 21.9568 23.0376 21.9568C23.0376 21.9568 23.0376 21.9568 23.0376 21.9568C23.0376 21.9568 23.0376 21.9568 23.0376 21.9568C23.0376 21.9568 23.0376 21.9568 23.0376 21.9568C23.0376 21.9568 23.0376 21.9568 23.0376 21.9568C23.0376 21.9568 23.0376 21.9568 23.0376 21.9568C23.0376 21.9568 23.0376 21.9568 23.0376 21.9568C23.0376 21.9568 23.0376 21.9568 23.0376 21.9568C23.0376 21.9568 23.0376 21.9568 23.0376 21.9568C23.0376 21.9568 23.0376 21.9568 23.0376 21.9568C23.0376 21.9568 23.0376 21.9568 23.0376 21.9568C23.0376 21.9568 23.0376 21.9568 23.0376 21.9568C23.0376 21.9568 23.0376 21.9568 23.0376 21.9568C23.0376 21.9568 23.0376 21.9568 23.0376 21.9568C23.0376 21.9568 23.0376 21.9568 23.0376 21.9568C23.0376 21.9568 23.0376 21.9568 23.0376 21.9568C23.0376 21.9568 23.0376 21.9568 23.0376 21.9568C23.0376 21.9568 23.0376 21.9568 23.0376 21.9568C23.0376 21.9568 23.0376 21.9568 23.0376 21.9568C23.0376 21.9568 23.0376 21.9568 23.0376 21.9568C23.0376 21.9568 23.0376 21.9568 23.0376 21.9568C23.0376 21.9568 23.0376 21.9568 23.0376 21.9568C23.0376 21.9568 23.0376 21.9568 23.0376 21.9568C23.0376 21.9568 23.0376 21.9568 23.0376 21.9568C23.0376 21.9568 23.0376 21.9568 23.0376 21.9568C23.0376 21.9568 23.0376 21.9568 23.0376 21.9568C23.0376 21.9568 23.0376 21.9568 23.0376 21.9568C23.0376 21.9568 23.0376 21.9568 23.0376 21.9568C23.0376 21.9568 23.0376 21.9568 23.0376 21.9568C23.0376 21.9568 23.0376 21.9568 23.0376 21.9568C23.0376 21.9568 23.0376 21.9568 23.0376 21.9568C23.0376 21.9568 23.0376 21.9568 23.0376 21.9568C23.0376 21.9568 23.0376 21.9568 23.0376 21.9568C23.0376 21.9568 23.0376 21.9568 23.0376 21.9568C23.0376 21.9568 23.0376 21.9568 23.0376 21.9568C23.0376 21.9568 23.0376 21.9568 23.0376 21.9568C23.0376 21.9568 23.0376 21.9568 23.0376 21.9568C23.0376 21.9568 23.0376 21.9568 23.0376 21.9568C23.0376 21.9568 23.0376 21.9568 23.0376 21.9568C23.0376 21.9568 23.0376 21.9568 23.0376 21.9568C23.0376 21.9568 23.0376 21.9568 23.0376 21.9568C23.0376 21.9568 23.0376 21.9568 23.0376 21.9568C23.0376 21.9568 23.0376 21.9568 23.0376 21.9568C23.0376 21.9568 23.0376 21.9568 23.0376 21.9568C23.0376 21.9568 23.0376 21.9568 23.0376 21.9568C23.0376 21.9568 23.0376 21.9568 23.0376 21.9568C23.0376 21.9568 23.0376 21.9568 23.0376 21.9568C23.0376 21.9568 23.0376 21.9568 23.0376 21.9568C23.0376 21.9568 23.0376 21.9568 23.0376 21.9568C23.0376 21.9568 23.0376 21.9568 23.0376 21.9568C23.0376 21.9568 23.0376 21.9568 23.0376 21.9568C23.0376 21.9568 23.0376 21.9568 23.0376 21.9568C23.0375 21.9568 23.0375 21.9568 23.0375 21.9568C23.0375 21.9568 23.0375 21.9568 23.0375 21.9568C23.0375 21.9568 23.0375 21.9568 23.0375 21.9568C23.0375 21.9568 23.0375 21.9568 23.0375 21.9568C23.0375 21.9568 23.0375 21.9568 23.0375 21.9568C23.0375 21.9568 23.0375 21.9568 23.0375 21.9568C23.0375 21.9568 23.0375 21.9568 23.0375 21.9568C23.0375 21.9568 23.0375 21.9568 23.0375 21.9568C23.0375 21.9568 23.0375 21.9568 23.0375 21.9568C23.0375 21.9568 23.0375 21.9568 23.0375 21.9568C23.0375 21.9568 23.0375 21.9568 23.0375 21.9568C23.0375 21.9568 23.0375 21.9568 23.0375 21.9568C23.0375 21.9568 23.0375 21.9568 23.0375 21.9568C23.0375 21.9568 23.0375 21.9568 23.0375 21.9568C23.0375 21.9568 23.0375 21.9568 23.0375 21.9568C23.0375 21.9568 23.0375 21.9568 23.0375 21.9568C23.0375 21.9568 23.0375 21.9568 23.0375 21.9568C23.0375 21.9568 23.0375 21.9568 23.0375 21.9568C23.0375 21.9568 23.0375 21.9568 23.0375 21.9568C23.0375 21.9568 23.0375 21.9568 23.0375 21.9568C23.0375 21.9568 23.0375 21.9568 23.0375 21.9568C23.0375 21.9568 23.0375 21.9568 23.0375 21.9568C23.0375 21.9568 23.0375 21.9568 23.0375 21.9568C23.0375 21.9568 23.0375 21.9568 23.0375 21.9568C23.0375 21.9568 23.0375 21.9568 23.0375 21.9568C23.0375 21.9568 23.0375 21.9568 23.0375 21.9568C23.0375 21.9568 23.0375 21.9568 23.0375 21.9568C23.0375 21.9568 23.0375 21.9568 23.0375 21.9568C23.0375 21.9568 23.0375 21.9568 23.0375 21.9568C23.0375 21.9568 23.0375 21.9568 23.0375 21.9568C23.0375 21.9568 23.0375 21.9568 23.0375 21.9568C23.0375 21.9568 23.0375 21.9568 23.0375 21.9568C23.0375 21.9568 23.0375 21.9568 23.0375 21.9568C23.0375 21.9568 23.0375 21.9568 23.0375 21.9568C23.0375 21.9568 23.0375 21.9568 23.0375 21.9568C23.0375 21.9568 23.0375 21.9568 23.0375 21.9568C23.0375 21.9568 23.0375 21.9568 23.0375 21.9568C23.0375 21.9568 23.0375 21.9568 23.0375 21.9568C23.0375 21.9568 23.0375 21.9568 23.0375 21.9568C23.0375 21.9568 23.0375 21.9568 23.0375 21.9568C23.0375 21.9568 23.0375 21.9568 23.0375 21.9568C23.0375 21.9568 23.0375 21.9568 23.0375 21.9568C23.0375 21.9568 23.0375 21.9568 23.0375 21.9568C23.0375 21.9568 23.0375 21.9568 23.0375 21.9568C23.0375 21.9568 23.0375 21.9568 23.0375 21.9568C23.0375 21.9568 23.0375 21.9568 23.0375 21.9568C23.0375 21.9568 23.0375 21.9568 23.0375 21.9568C23.0375 21.9568 23.0375 21.9568 23.0375 21.9568C23.0375 21.9568 23.0375 21.9568 23.0375 21.9568C23.0375 21.9568 23.0375 21.9568 23.0375 21.9568C23.0375 21.9568 23.0375 21.9568 23.0375 21.9568C23.0375 21.9568 23.0375 21.9568 23.0375 21.9568C23.0375 21.9568 23.0375 21.9568 23.0375 21.9568C23.0375 21.9568 23.0375 21.9568 23.0375 21.9568C23.0375 21.9568 23.0375 21.9568 23.0375 21.9568C23.0375 21.9568 23.0375 21.9568 23.0375 21.9568C23.0375 21.9568 23.0375 21.9568 23.0375 21.9568C23.0375 21.9568 23.0375 21.9568 23.0375 21.9568C23.0375 21.9568 23.0375 21.9568 23.0375 21.9568C23.0375 21.9568 23.0375 21.9568 23.0375 21.9568C23.0375 21.9568 23.0375 21.9568 23.0375 21.9568C23.0375 21.9568 23.0375 21.9568 23.0375 21.9568C23.0375 21.9568 23.0375 21.9568 23.0375 21.9568C23.0375 21.9568 23.0375 21.9568 23.0375 21.9568C23.0375 21.9568 23.0375 21.9568 23.0375 21.9568C23.0375 21.9568 23.0375 21.9568 23.0375 21.9568C23.0375 21.9568 23.0375 21.9568 23.0375 21.9568C23.0375 21.9568 23.0375 21.9568 23.0375 21.9568C23.0375 21.9568 23.0375 21.9568 23.0375 21.9568C23.0375 21.9568 23.0375 21.9568 23.0375 21.9568C23.0375 21.9568 23.0375 21.9568 23.0375 21.9568C23.0375 21.9568 23.0375 21.9568 23.0375 21.9568C23.0375 21.9568 23.0375 21.9568 23.0375 21.9568C23.0375 21.9568 23.0375 21.9568 23.0375 21.9568C23.0375 21.9568 23.0375 21.9568 23.0375 21.9568C23.0375 21.9568 23.0375 21.9568 23.0375 21.9568C23.0375 21.9568 23.0375 21.9568 23.0375 21.9568C23.0375 21.9568 23.0375 21.9568 23.0375 21.9568C23.0375 21.9568 23.0375 21.9568 23.0375 21.9568C23.0375 21.9568 23.0375 21.9568 23.0375 21.9568C23.0375 21.9568 23.0375 21.9568 23.0375 21.9568C23.0375 21.9568 23.0375 21.9568 23.0375 21.9568C23.0375 21.9568 23.0375 21.9568 23.0375 21.9568C23.0375 21.9568 23.0375 21.9568 23.0375 21.9568C23.0375 21.9568 23.0375 21.9568 23.0375 21.9568C23.0375 21.9568 23.0375 21.9568 23.0375 21.9568C23.0375 21.9568 23.0375 21.9568 23.0375 21.9568C23.0375 21.9568 23.0375 21.9568 23.0375 21.9568C23.0375 21.9568 23.0375 21.9568 23.0375 21.9568C23.0375 21.9568 23.0375 21.9568 23.0375 21.9568C23.0375 21.9568 23.0375 21.9568 23.0375 21.9568C23.0375 21.9568 23.0375 21.9568 23.0375 21.9568C23.0375 21.9568 23.0375 21.9568 23.0375 21.9568C23.0375 21.9568 23.0375 21.9568 23.0375 21.9568C23.0375 21.9568 23.0375 21.9568 23.0375 21.9568C23.0375 21.9568 23.0375 21.9568 23.0375 21.9568C23.0375 21.9568 23.0375 21.9568 23.0375 21.9568C23.0375 21.9568 23.0375 21.9568 23.0375 21.9568C23.0375 21.9568 23.0375 21.9568 23.0375 21.9568C23.0375 21.9568 23.0375 21.9568 23.0375 21.9568C23.0375 21.9568 23.0375 21.9568 23.0375 21.9568C23.0375 21.9568 23.0375 21.9568 23.0375 21.9568C23.0375 21.9568 23.0375 21.9568 23.0375 21.9568C23.0375 21.9568 23.0375 21.9568 23.0375 21.9568C23.0375 21.9568 23.0375 21.9568 23.0375 21.9568C23.0375 21.9568 23.0375 21.9568 23.0375 21.9568C23.0375 21.9568 23.0375 21.9568 23.0375 21.9568C23.0375 21.9568 23.0375 21.9568 23.0375 21.9568C23.0375 21.9568 23.0375 21.9568 23.0375 21.9568C23.0375 21.9568 23.0375 21.9568 23.0375 21.9568C23.0375 21.9568 23.0375 21.9568 23.0375 21.9568C23.0375 21.9568 23.0375 21.9568 23.0375 21.9568C23.0375 21.9568 23.0375 21.9568 23.0375 21.9568C23.0375 21.9568 23.0375 21.9568 23.0375 21.9568C23.0375 21.9568 23.0375 21.9568 23.0375 21.9568C23.0375 21.9568 23.0375 21.9568 23.0375 21.9568C23.0375 21.9568 23.0375 21.9568 23.0375 21.9568C23.0375 21.9568 23.0375 21.9568 23.0375 21.9568C23.0375 21.9568 23.0375 21.9568 23.0375 21.9568C23.0375 21.9568 23.0375 21.9568 23.0375 21.9568C23.0375 21.9568 23.0375 21.9568 23.0375 21.9568C23.0375 21.9568 23.0375 21.9568 22.7547 22.2396C22.7547 22.2396 22.7547 22.2396 22.7547 22.2396C22.7547 22.2396 22.7547 22.2396 22.7547 22.2396C22.7547 22.2396 22.7547 22.2396 22.7547 22.2396C22.7547 22.2396 22.7547 22.2396 22.7547 22.2396C22.7547 22.2396 22.7547 22.2396 22.7547 22.2396C22.7547 22.2396 22.7547 22.2396 22.7547 22.2396C22.7547 22.2396 22.7547 22.2396 22.7547 22.2396C22.7547 22.2396 22.7547 22.2396 22.7547 22.2396C22.7547 22.2396 22.7547 22.2396 22.7547 22.2396C22.7547 22.2396 22.7547 22.2396 22.7547 22.2396C22.7547 22.2396 22.7547 22.2396 22.7547 22.2396C22.7547 22.2396 22.7547 22.2396 22.7547 22.2396C22.7547 22.2396 22.7547 22.2396 22.7547 22.2396C22.7547 22.2396 22.7547 22.2396 22.7547 22.2396C22.7547 22.2396 22.7547 22.2396 22.7547 22.2396C22.7547 22.2396 22.7547 22.2396 22.7547 22.2396C22.7547 22.2396 22.7547 22.2396 22.7547 22.2396C22.7547 22.2396 22.7547 22.2396 22.7547 22.2396C22.7547 22.2396 22.7547 22.2396 22.7547 22.2396C22.7547 22.2396 22.7547 22.2396 22.7547 22.2396C22.7547 22.2396 22.7547 22.2396 22.7547 22.2396C22.7547 22.2396 22.7547 22.2396 22.7547 22.2396C22.7547 22.2396 22.7547 22.2396 22.7547 22.2396C22.7547 22.2396 22.7547 22.2396 22.7547 22.2396C22.7547 22.2396 22.7547 22.2396 22.7547 22.2396C22.7547 22.2396 22.7547 22.2396 22.7547 22.2396C22.7547 22.2396 22.7547 22.2396 22.7547 22.2396C22.7547 22.2396 22.7547 22.2396 22.7547 22.2396C22.7547 22.2396 22.7547 22.2396 22.7547 22.2396C22.7547 22.2396 22.7547 22.2396 22.7547 22.2396C22.7547 22.2396 22.7547 22.2396 22.7547 22.2396C22.7547 22.2396 22.7547 22.2396 22.7547 22.2396C22.7547 22.2396 22.7547 22.2396 22.7547 22.2396C22.7547 22.2396 22.7547 22.2396 22.7547 22.2396C22.7547 22.2396 22.7547 22.2396 22.7547 22.2396C22.7547 22.2396 22.7547 22.2396 22.7547 22.2396C22.7547 22.2396 22.7547 22.2396 22.7547 22.2396C22.7547 22.2396 22.7547 22.2396 22.7547 22.2396C22.7547 22.2396 22.7547 22.2396 22.7547 22.2396C22.7547 22.2396 22.7547 22.2396 22.7547 22.2396C22.7547 22.2396 22.7547 22.2396 22.7547 22.2396C22.7547 22.2396 22.7547 22.2396 22.7547 22.2396C22.7547 22.2396 22.7547 22.2396 22.7547 22.2396C22.7547 22.2396 22.7547 22.2396 22.7547 22.2396C22.7547 22.2396 22.7547 22.2396 22.7547 22.2396C22.7547 22.2396 22.7547 22.2396 22.7547 22.2396C22.7547 22.2396 22.7547 22.2396 22.7547 22.2396C22.7547 22.2396 22.7547 22.2396 22.7547 22.2396C22.7547 22.2396 22.7547 22.2396 22.7547 22.2396C22.7547 22.2396 22.7547 22.2396 22.7547 22.2396C22.7547 22.2396 22.7547 22.2396 22.7547 22.2396C22.7547 22.2396 22.7547 22.2396 22.7547 22.2396C22.7547 22.2396 22.7547 22.2396 22.7547 22.2396C22.7547 22.2396 22.7547 22.2396 22.7547 22.2396C22.7547 22.2396 22.7547 22.2396 22.7547 22.2396C22.7547 22.2396 22.7547 22.2396 22.7547 22.2396C22.7547 22.2396 22.7547 22.2396 22.7547 22.2396C22.7547 22.2396 22.7547 22.2396 22.7547 22.2396C22.7547 22.2396 22.7547 22.2396 22.7547 22.2396C22.7547 22.2396 22.7547 22.2396 22.7547 22.2396C22.7547 22.2396 22.7547 22.2396 22.7547 22.2396C22.7547 22.2396 22.7547 22.2396 22.7547 22.2396C22.7547 22.2396 22.7547 22.2396 22.7547 22.2396C22.7547 22.2396 22.7547 22.2396 22.7547 22.2396C22.7547 22.2396 22.7547 22.2396 22.7547 22.2396C22.7547 22.2396 22.7547 22.2396 22.7547 22.2396C22.7547 22.2396 22.7547 22.2396 22.7547 22.2396C22.7547 22.2396 22.7547 22.2396 22.7547 22.2396C22.7547 22.2396 22.7547 22.2396 22.7547 22.2396C22.7547 22.2396 22.7547 22.2396 22.7547 22.2396C22.7547 22.2396 22.7547 22.2396 22.7547 22.2396C22.7547 22.2396 22.7547 22.2396 22.7547 22.2396C22.7547 22.2396 22.7547 22.2396 22.7547 22.2396C22.7547 22.2396 22.7547 22.2396 22.7547 22.2396C22.7547 22.2396 22.7547 22.2396 22.7547 22.2396C22.7547 22.2396 22.7547 22.2396 22.7547 22.2396C22.7547 22.2396 22.7547 22.2396 22.7547 22.2396C22.7547 22.2396 22.7547 22.2396 22.7547 22.2396C22.7547 22.2396 22.7547 22.2396 22.7547 22.2396C22.7547 22.2396 22.7547 22.2396 22.7547 22.2396C22.7547 22.2396 22.7547 22.2396 22.7547 22.2396C22.7547 22.2396 22.7547 22.2396 22.7547 22.2396C22.7547 22.2396 22.7547 22.2396 22.7547 22.2396C22.7547 22.2396 22.7547 22.2396 22.7547 22.2396C22.7547 22.2396 22.7547 22.2396 22.7547 22.2397C22.7547 22.2397 22.7547 22.2397 22.7547 22.2397C22.7547 22.2397 22.7547 22.2397 22.7547 22.2397C22.7547 22.2397 22.7547 22.2397 22.7547 22.2397C22.7547 22.2397 22.7547 22.2397 22.7547 22.2397C22.7547 22.2397 22.7547 22.2397 22.7547 22.2397C22.7547 22.2397 22.7547 22.2397 22.7547 22.2397C22.7547 22.2397 22.7547 22.2397 22.7547 22.2397C22.7547 22.2397 22.7547 22.2397 22.7547 22.2397C22.7547 22.2397 22.7547 22.2397 22.7547 22.2397C22.7547 22.2397 22.7547 22.2397 22.7547 22.2397C22.7547 22.2397 22.7547 22.2397 22.7547 22.2397C22.7547 22.2397 22.7547 22.2397 22.7547 22.2397C22.7547 22.2397 22.7547 22.2397 22.7547 22.2397C22.7547 22.2397 22.7547 22.2397 22.7547 22.2397C22.7547 22.2397 22.7547 22.2397 22.7547 22.2397C22.7547 22.2397 22.7547 22.2397 22.7547 22.2397C22.7547 22.2397 22.7547 22.2397 22.7547 22.2397C22.7547 22.2397 22.7547 22.2397 22.7547 22.2397C22.7547 22.2397 22.7547 22.2397 22.7547 22.2397C22.7547 22.2397 22.7547 22.2397 22.7547 22.2397C22.7547 22.2397 22.7547 22.2397 22.7547 22.2397C22.7547 22.2397 22.7547 22.2397 22.7547 22.2397C22.7547 22.2397 22.7547 22.2397 22.7547 22.2397L23.0376 21.9568ZM28.5049 12.4395L28.7859 12.7242L28.7865 12.7236L28.5049 12.4395ZM31.7226 9.25048L31.441 8.96636L31.441 8.96637L31.7226 9.25048ZM31.7237 7.91991L32.0058 7.63632L32.0058 7.6363L31.7237 7.91991ZM25.0678 1.29249L25.3506 1.00965L25.3506 1.00963L25.0678 1.29249ZM23.742 1.29249L23.4591 1.00963L23.4591 1.00964L23.742 1.29249ZM21.334 3.70026L21.0512 3.4174L21.0512 3.41741L21.334 3.70026ZM16.9008 4.46801L16.6998 4.81383L16.8335 4.89152L16.9846 4.85914L16.9008 4.46801ZM12.9576 3.64251L12.9416 3.24283L12.9416 3.24283L12.9576 3.64251ZM10.8913 3.28319L10.6703 3.61677L10.6778 3.62151L10.8913 3.28319ZM8.24736 0.723302L7.96452 1.00615L7.96452 1.00615L8.24736 0.723302ZM6.92154 0.723302L6.63872 0.440436L6.63871 0.440446L6.92154 0.723302ZM0.275564 7.35147L-0.00668675 7.06803L-0.00687701 7.06822L0.275564 7.35147ZM2.6535e-07 8.01603L0.4 8.01573L0.4 8.01573L2.6535e-07 8.01603ZM0.276502 8.68016L-0.00553697 8.9638L-0.00553529 8.96381L0.276502 8.68016ZM3.38396 11.77L3.70309 11.5288L3.68604 11.5063L3.66599 11.4863L3.38396 11.77ZM3.6224 12.7866L3.22733 12.8492L3.22733 12.8492L3.6224 12.7866ZM4.42803 15.3752L4.71087 15.658L4.93342 15.4355L4.76947 15.1668L4.42803 15.3752ZM4.33428 15.4689L4.05143 15.1861L4.05143 15.1861L4.33428 15.4689ZM4.33428 19.4464L4.61714 19.1636L4.61711 19.1636L4.33428 19.4464ZM6.1681 20.2642L6.5675 20.2424L6.54793 19.8844L6.18993 19.8648L6.1681 20.2642ZM6.98592 22.0981L6.70306 22.3809L6.70307 22.381L6.98592 22.0981ZM8.81993 22.9174L9.21932 22.8954L9.19956 22.5373L8.84143 22.518L8.81993 22.9174ZM9.63762 24.7498L9.92048 24.4669L9.92046 24.4669L9.63762 24.7498ZM11.4714 25.5676L11.8708 25.5457L11.8513 25.1877L11.4933 25.1682L11.4714 25.5676ZM12.2893 27.4014L12.5721 27.1185L12.5721 27.1185L12.2893 27.4014ZM15.491 27.9515L15.7739 27.6686L15.5737 27.4684L15.3183 27.5907L15.491 27.9515ZM16.2668 28.7272L16.5496 28.4444L16.5496 28.4444L16.2668 28.7272ZM20.2442 28.7272L19.9614 28.4444L19.9614 28.4444L20.2442 28.7272ZM21.0636 26.8933L21.0415 26.4939L20.6835 26.5136L20.6641 26.8717L21.0636 26.8933ZM22.8959 26.0756L23.1788 26.3584L23.1788 26.3584L22.8959 26.0756ZM23.7136 24.2432L23.6921 23.8438L23.334 23.8631L23.3142 24.2211L23.7136 24.2432ZM25.5476 23.4239L25.8304 23.7068L25.8304 23.7068L25.5476 23.4239ZM26.3654 21.5901L26.3436 21.1907L25.9856 21.2103L25.966 21.5683L26.3654 21.5901ZM28.1992 20.7723L27.9164 20.4894L27.9164 20.4895L28.1992 20.7723ZM27.4627 16.0583L27.1244 15.8448L26.9538 16.1151L27.1798 16.3411L27.4627 16.0583ZM28.4912 12.4566L28.1701 12.2182L28.1531 12.241L28.1396 12.266L28.4912 12.4566ZM20.2999 5.96833L20.5828 5.68549L20.4452 5.54789L20.252 5.57122L20.2999 5.96833ZM26.5798 12.2483L26.9672 12.3481L27.0242 12.127L26.8627 11.9655L26.5798 12.2483ZM26.075 14.6706L25.7922 14.9535L26.2142 15.3755L26.4442 14.8247L26.075 14.6706ZM20.2442 8.83985L19.9614 9.12269L19.9614 9.12269L20.2442 8.83985ZM16.2667 8.83985L16.5496 9.12269L16.5496 9.12268L16.2667 8.83985ZM13.6151 11.4915L13.8979 11.7744L13.8979 11.7743L13.6151 11.4915ZM12.2893 11.4915L12.0064 11.7743L12.0064 11.7743L12.2893 11.4915ZM12.2893 10.1657L12.5721 10.4485L12.5721 10.4485L12.2893 10.1657ZM14.941 7.51397L15.2238 7.79681L15.2238 7.7968L14.941 7.51397ZM3.7009 9.44098L3.41886 9.72462L3.7017 10.0059L3.98374 9.72382L3.7009 9.44098ZM2.2662 8.01441L1.98378 7.73115L1.69929 8.01479L1.98416 8.29805L2.2662 8.01441ZM7.58386 2.71144L7.86669 2.42859L7.58418 2.14608L7.30134 2.42827L7.58386 2.71144ZM9.00718 4.1347L9.29002 4.41754L9.57287 4.13469L9.29001 3.85185L9.00718 4.1347ZM6.98585 18.1206L7.2687 18.4034L7.2687 18.4034L6.98585 18.1206ZM5.65997 18.1206L5.3771 18.4034L5.37713 18.4034L5.65997 18.1206ZM5.66003 16.7948L5.37719 16.5119L5.37717 16.512L5.66003 16.7948ZM6.98585 15.4689L7.2687 15.7518L7.26872 15.7518L6.98585 15.4689ZM8.31167 16.7948L8.59452 17.0776L8.59454 17.0776L8.31167 16.7948ZM9.63756 20.7723L9.92037 21.0552L9.92041 21.0551L9.63756 20.7723ZM8.31174 20.7723L8.59458 20.4894L8.59458 20.4894L8.31174 20.7723ZM8.31174 19.4464L8.59458 19.7293L8.59458 19.7293L8.31174 19.4464ZM9.63756 18.1206L9.35474 17.8377L9.35471 17.8377L9.63756 18.1206ZM10.9634 18.1206L10.6805 18.4034L10.6805 18.4034L10.9634 18.1206ZM10.9634 19.4464L10.6806 19.1635L10.6805 19.1636L10.9634 19.4464ZM10.9634 23.4239L11.2463 23.1411L11.2463 23.1411L10.9634 23.4239ZM10.9634 22.0981L10.6805 21.8153L10.6805 21.8153L10.9634 22.0981ZM12.2893 20.7723L12.5721 21.0551L12.5721 21.0551L12.2893 20.7723ZM13.6151 20.7723L13.8979 20.4895L13.8979 20.4894L13.6151 20.7723ZM13.6151 22.0981L13.3322 21.8153L13.3322 21.8153L13.6151 22.0981ZM12.2893 23.4239L12.5721 23.7068L12.5721 23.7068L12.2893 23.4239ZM16.2667 24.7497L15.9838 24.4668L15.9838 24.4668L16.2667 24.7497ZM14.9408 26.0755L14.6579 25.7927L14.6579 25.7927L14.9408 26.0755ZM13.615 26.0756L13.3321 26.3584L13.3322 26.3584L13.615 26.0756ZM13.615 24.7498L13.3322 24.4669L13.3322 24.4669L13.615 24.7498ZM18.9184 27.4015L19.2012 27.6843L19.2012 27.6843L18.9184 27.4015ZM17.5925 27.4015L17.3097 27.6843L17.3097 27.6843L17.5925 27.4015ZM16.9296 26.7385L16.6468 26.4557L16.3639 26.7385L16.6468 27.0214L16.9296 26.7385ZM17.5925 26.0756L17.8754 26.3585L17.8754 26.3585L17.5925 26.0756ZM18.1414 25.2987L18.4243 25.0158L18.0238 24.6154L17.7803 25.1267L18.1414 25.2987ZM18.9184 26.0756L18.6355 26.3585L18.6355 26.3585L18.9184 26.0756ZM26.8734 19.4464L26.5906 19.1636L26.5906 19.1636L26.8734 19.4464ZM25.5476 19.4464L25.2647 19.7293L25.2648 19.7293L25.5476 19.4464ZM21.0072 14.906L20.7243 15.1888L20.7243 15.1889L21.0072 14.906ZM19.6814 16.2318L19.9642 15.949L19.9642 15.949L19.6814 16.2318ZM24.2218 20.7722L24.5046 20.4894L24.5046 20.4894L24.2218 20.7722ZM24.2218 22.098L24.5046 22.3809L24.5046 22.3809L24.2218 22.098ZM22.8961 22.0982L22.6133 22.3811L22.6134 22.3812L22.8961 22.0982ZM18.4141 17.6163L18.1312 17.8991L18.1313 17.8991L18.4141 17.6163ZM17.0883 17.6163L17.3711 17.8991L17.3711 17.8991L17.0883 17.6163ZM17.0883 18.9421L17.3711 18.6593L17.3711 18.6593L17.0883 18.9421ZM21.5701 23.4239L21.2872 23.7067L21.2872 23.7067L21.5701 23.4239ZM21.5701 24.7497L21.2872 24.4668L21.2872 24.4668L21.5701 24.7497ZM20.2442 24.7497L19.9613 25.0325L19.9614 25.0326L20.2442 24.7497ZM17.5925 22.098L17.3097 22.3808L17.3097 22.3808L17.5925 22.098ZM15.7602 21.2803L15.3608 21.3018L15.3801 21.6599L15.7382 21.6797L15.7602 21.2803ZM14.9409 19.4463L15.2237 19.1635L15.2237 19.1635L14.9409 19.4463ZM13.107 18.627L12.7076 18.6491L12.7273 19.0071L13.0854 19.0265L13.107 18.627ZM10.4553 15.9754L10.0559 15.9974L10.0757 16.3555L10.4338 16.3748L10.4553 15.9754ZM9.63756 14.143L9.35473 14.4259L9.35473 14.4259L9.63756 14.143ZM5.82585 13.9911L5.45475 14.1404L5.66229 14.6563L6.0854 14.2955L5.82585 13.9911ZM5.47428 12.4931L5.86935 12.4304L5.86935 12.4304L5.47428 12.4931ZM4.99009 10.8034L4.70725 10.5206L4.48491 10.7429L4.64846 11.0115L4.99009 10.8034ZM10.5694 5.22414L10.7202 4.85365L10.4743 4.75356L10.2865 4.9413L10.5694 5.22414ZM13.0327 5.51595L13.0487 5.91563L13.0488 5.91563L13.0327 5.51595ZM14.3798 5.53996L14.6124 5.86539L15.44 5.27391L14.4311 5.14327L14.3798 5.53996ZM13.6151 6.18808L13.8979 6.47093L13.8979 6.47093L13.6151 6.18808ZM10.9634 8.83972L10.6805 8.55688L10.6805 8.55688L10.9634 8.83972ZM10.9634 12.8172L10.6805 13.1L10.6805 13.1L10.9634 12.8172ZM14.9409 12.8172L14.6581 12.5343L14.6581 12.5343L14.9409 12.8172ZM17.5925 10.1655L17.3097 9.88268L17.3097 9.8827L17.5925 10.1655ZM18.9184 10.1655L19.2012 9.8827L19.2012 9.8827L18.9184 10.1655ZM26.8733 18.1205L27.1562 17.8377L27.1562 17.8377L26.8733 18.1205ZM22.3056 5.32233L22.0765 4.99443L21.6853 5.26773L22.0227 5.60517L22.3056 5.32233ZM24.4049 3.28125L24.6877 2.99841L24.4049 2.71558L24.1221 2.9984L24.4049 3.28125ZM29.7321 8.58335L30.0137 8.86745L30.2998 8.58385L30.0142 8.29974L29.7321 8.58335ZM27.64 10.6568L27.3572 10.9396L27.6388 11.2212L27.9216 10.9409L27.64 10.6568ZM28.7865 12.7236L32.0041 9.53458L31.441 8.96637L28.2233 12.1554L28.7865 12.7236ZM32.0041 9.53459C32.5314 9.01206 32.532 8.15967 32.0058 7.63632L31.4417 8.20349C31.653 8.41377 31.6527 8.75651 31.441 8.96636L32.0041 9.53459ZM32.0058 7.6363C25.7449 1.40891 27.0428 2.70181 25.3506 1.00965L24.7849 1.57534C26.478 3.26844 25.1811 1.97646 31.4417 8.20351L32.0058 7.6363ZM25.3506 1.00963C24.8283 0.487384 23.9815 0.487384 23.4591 1.00963L24.0248 1.57536C24.2347 1.36547 24.575 1.36547 24.785 1.57536L25.3506 1.00963ZM23.4591 1.00964L21.0512 3.4174L21.6168 3.98311L24.0248 1.57535L23.4591 1.00964ZM21.0512 3.41741C20.987 3.48158 20.8447 3.55705 20.5665 3.62081C20.298 3.68235 19.9603 3.72105 19.5598 3.75557C18.7775 3.82302 17.7768 3.8713 16.8171 4.07688L16.9846 4.85914C17.8803 4.66728 18.8042 4.62369 19.6285 4.55262C20.0314 4.51789 20.4177 4.47566 20.7452 4.4006C21.0631 4.32775 21.389 4.21094 21.6168 3.9831L21.0512 3.41741ZM17.1019 4.12219C15.4153 3.14184 14.0132 3.19998 12.9416 3.24283L12.9736 4.04219C14.0184 4.00041 15.2222 3.95492 16.6998 4.81383L17.1019 4.12219ZM12.9416 3.24283C12.0018 3.28049 11.6326 3.27788 11.1047 2.94488L10.6778 3.62151C11.4368 4.10025 12.0391 4.07964 12.9736 4.04219L12.9416 3.24283ZM11.1121 2.9497C10.9797 2.862 10.9205 2.82248 10.6007 2.50976C10.273 2.18943 9.69659 1.60682 8.5302 0.440456L7.96452 1.00615C9.12514 2.16674 9.7095 2.75732 10.0414 3.08182C10.3811 3.41393 10.4804 3.49089 10.6704 3.61669L11.1121 2.9497ZM8.5302 0.440459C8.00784 -0.0819077 7.16102 -0.0817761 6.63872 0.440436L7.20436 1.00617C7.41431 0.796252 7.75463 0.796258 7.96452 1.00615L8.5302 0.440459ZM6.63871 0.440446C5.98413 1.09496 0.0531442 7.00845 -0.00668669 7.06803L0.557815 7.6349C0.617735 7.57523 6.54919 1.66127 7.20437 1.00616L6.63871 0.440446ZM-0.00687701 7.06822C-0.258745 7.31938 -0.400267 7.66053 -0.4 8.01633L0.4 8.01573C0.399893 7.87278 0.456746 7.73568 0.558006 7.63471L-0.00687701 7.06822ZM-0.4 8.01633C-0.399732 8.37211 -0.257767 8.713 -0.00553697 8.9638L0.558541 8.39652C0.457144 8.29569 0.400108 8.15871 0.4 8.01573L-0.4 8.01633ZM-0.00553529 8.96381L3.10192 12.0536L3.66599 11.4863L0.558539 8.39651L-0.00553529 8.96381ZM3.06483 12.0111C3.04286 11.9821 3.0501 11.9788 3.07209 12.0507C3.08955 12.1078 3.10818 12.1843 3.12724 12.2758C3.1653 12.4584 3.19898 12.6704 3.22733 12.8492L4.01747 12.724C3.98975 12.5491 3.95312 12.3175 3.91042 12.1126C3.88911 12.0103 3.86476 11.9071 3.8371 11.8167C3.81398 11.7411 3.77396 11.6226 3.70309 11.5288L3.06483 12.0111ZM3.22733 12.8492C3.34512 13.5925 3.50629 14.6327 4.08658 15.5836L4.76947 15.1668C4.28263 14.3691 4.13742 13.4809 4.01747 12.724L3.22733 12.8492ZM4.14518 15.0924L4.05143 15.1861L4.61712 15.7518L4.71087 15.658L4.14518 15.0924ZM4.05143 15.1861C2.79605 16.4415 2.79589 18.4738 4.05144 19.7293L4.61711 19.1636C3.67403 18.2205 3.67412 16.6948 4.61712 15.7518L4.05143 15.1861ZM4.05142 19.7292C4.63304 20.3109 5.38451 20.622 6.14627 20.6636L6.18993 19.8648C5.61631 19.8335 5.05339 19.5999 4.61714 19.1636L4.05142 19.7292ZM5.7687 20.2861C5.81034 21.0479 6.12148 21.7993 6.70306 22.3809L7.26878 21.8153C6.83248 21.3789 6.59886 20.816 6.5675 20.2424L5.7687 20.2861ZM6.70307 22.381C7.26735 22.9452 8.00679 23.2742 8.79842 23.3169L8.84143 22.518C8.24693 22.486 7.69361 22.2401 7.26876 21.8153L6.70307 22.381ZM8.42053 22.9395C8.46253 23.7007 8.7736 24.4514 9.35478 25.0326L9.92046 24.4669C9.48451 24.031 9.25094 23.4686 9.21932 22.8954L8.42053 22.9395ZM9.35476 25.0326C9.93638 25.6143 10.6878 25.9253 11.4496 25.967L11.4933 25.1682C10.9196 25.1368 10.3567 24.9032 9.92048 24.4669L9.35476 25.0326ZM11.072 25.5894C11.1137 26.3512 11.4247 27.1026 12.0064 27.6843L12.5721 27.1185C12.1358 26.6823 11.9022 26.1194 11.8708 25.5457L11.072 25.5894ZM12.0064 27.6842C13.0087 28.6865 14.4866 28.8758 15.6638 28.3122L15.3183 27.5907C14.4336 28.0142 13.3241 27.8705 12.5721 27.1185L12.0064 27.6842ZM15.2082 28.2343L15.9839 29.0101L16.5496 28.4444L15.7739 27.6686L15.2082 28.2343ZM15.9839 29.01C17.2393 30.2654 19.2717 30.2656 20.5271 29.01L19.9614 28.4444C19.0184 29.3875 17.4926 29.3874 16.5496 28.4444L15.9839 29.01ZM20.5271 29.0101C21.0914 28.4458 21.4203 27.7064 21.463 26.9148L20.6641 26.8717C20.6321 27.4663 20.3862 28.0195 19.9614 28.4444L20.5271 29.0101ZM21.0856 27.2927C21.8469 27.2507 22.5976 26.9396 23.1788 26.3584L22.6131 25.7927C22.1772 26.2287 21.6148 26.4622 21.0415 26.4939L21.0856 27.2927ZM23.1788 26.3584C23.76 25.7771 24.071 25.0264 24.113 24.2653L23.3142 24.2211C23.2826 24.7943 23.049 25.3567 22.6131 25.7927L23.1788 26.3584ZM23.7352 24.6426C24.5267 24.5999 25.2661 24.2711 25.8304 23.7068L25.2647 23.1411C24.8399 23.5659 24.2867 23.8117 23.6921 23.8438L23.7352 24.6426ZM25.8304 23.7068C26.412 23.1251 26.7232 22.3737 26.7648 21.6119L25.966 21.5683C25.9346 22.1419 25.701 22.7048 25.2647 23.1411L25.8304 23.7068ZM26.3872 21.9895C27.1491 21.9479 27.9005 21.6368 28.4821 21.0551L27.9164 20.4895C27.4801 20.9258 26.9172 21.1593 26.3436 21.1907L26.3872 21.9895ZM28.4821 21.0551C29.7348 19.8024 29.7348 17.7648 28.4821 16.512L27.9164 17.0777C28.8567 18.018 28.8567 19.5491 27.9164 20.4894L28.4821 21.0551ZM28.4821 16.512L27.7455 15.7754L27.1798 16.3411L27.9164 17.0777L28.4821 16.512ZM27.8009 16.2717C28.2923 15.4932 28.4819 14.6752 28.5908 14.0052C28.6181 13.8375 28.6405 13.6774 28.6609 13.5304C28.6815 13.3815 28.6997 13.2487 28.7193 13.1273C28.7606 12.8718 28.8005 12.7255 28.8429 12.6472L28.1396 12.266C28.0252 12.4771 27.9702 12.7479 27.9296 12.9997C27.9082 13.132 27.8886 13.2753 27.8684 13.4205C27.8481 13.5675 27.8268 13.7193 27.8012 13.8768C27.6987 14.5073 27.5309 15.2007 27.1244 15.8448L27.8009 16.2717ZM28.8124 12.6951C28.8135 12.6936 28.8145 12.6922 28.8151 12.6914C28.8159 12.6903 28.8161 12.69 28.8164 12.6896C28.817 12.6888 28.8161 12.69 28.8147 12.6919C28.8131 12.6939 28.81 12.6979 28.8057 12.703C28.8014 12.708 28.7947 12.7155 28.7859 12.7242L28.2239 12.1548C28.2029 12.1756 28.1879 12.1946 28.1814 12.2031C28.1776 12.208 28.1745 12.2122 28.1728 12.2145C28.172 12.2156 28.1711 12.2168 28.1707 12.2173C28.1705 12.2176 28.1703 12.2178 28.1702 12.218C28.1701 12.2181 28.1701 12.2182 28.1701 12.2182L28.8124 12.6951ZM20.0171 6.25117L26.297 12.5311L26.8627 11.9655L20.5828 5.68549L20.0171 6.25117ZM26.1925 12.1485C26.0846 12.5669 26.0343 13.0148 25.9763 13.4064C25.9162 13.813 25.8459 14.1811 25.7059 14.5165L26.4442 14.8247C26.6249 14.3918 26.7061 13.9402 26.7677 13.5235C26.8316 13.0917 26.8732 12.7127 26.9672 12.3481L26.1925 12.1485ZM26.3579 14.3878L20.5271 8.55701L19.9614 9.12269L25.7922 14.9535L26.3579 14.3878ZM20.5271 8.55701C19.2718 7.30169 17.2394 7.30145 15.9839 8.55701L16.5496 9.12268C17.4926 8.17961 19.0185 8.17975 19.9614 9.12269L20.5271 8.55701ZM15.9839 8.55701L13.3322 11.2086L13.8979 11.7743L16.5496 9.12269L15.9839 8.55701ZM13.3323 11.2086C13.1219 11.4189 12.7823 11.4189 12.5721 11.2086L12.0064 11.7743C12.5291 12.297 13.3752 12.297 13.8979 11.7744L13.3323 11.2086ZM12.5721 11.2087C12.3628 10.9993 12.3628 10.6578 12.5721 10.4485L12.0064 9.8828C11.4846 10.4046 11.4848 11.2526 12.0064 11.7743L12.5721 11.2087ZM12.5721 10.4485L15.2238 7.79681L14.6581 7.23112L12.0064 9.88283L12.5721 10.4485ZM15.2238 7.7968C15.9 7.12054 16.708 6.8129 17.5894 6.65039C18.0325 6.56869 18.4885 6.52468 18.9542 6.48757C19.4135 6.45097 19.8916 6.42056 20.3479 6.36545L20.252 5.57122C19.8171 5.62373 19.368 5.65206 18.8907 5.69009C18.4198 5.72761 17.9299 5.77413 17.4443 5.86365C16.4684 6.04358 15.4881 6.40113 14.6581 7.23113L15.2238 7.7968ZM3.98294 9.15733L2.54824 7.73076L1.98416 8.29805L3.41886 9.72462L3.98294 9.15733ZM2.54862 8.29767C3.81512 7.03492 6.55812 4.29986 7.86638 2.99461L7.30134 2.42827C5.9932 3.73341 3.2503 6.46838 1.98378 7.73115L2.54862 8.29767ZM7.30102 2.99429L8.72434 4.41755L9.29001 3.85185L7.86669 2.42859L7.30102 2.99429ZM8.72433 3.85185L3.41805 9.15813L3.98374 9.72382L9.29002 4.41754L8.72433 3.85185ZM6.70301 17.8377C6.49366 18.0471 6.15217 18.0471 5.94281 17.8377L5.37713 18.4034C5.8989 18.9252 6.74692 18.9252 7.2687 18.4034L6.70301 17.8377ZM5.94284 17.8378C5.73267 17.6276 5.73267 17.2879 5.9429 17.0776L5.37717 16.512C4.85465 17.0346 4.85451 17.8807 5.3771 18.4034L5.94284 17.8378ZM5.94288 17.0776C6.45357 16.5669 6.73782 16.2827 7.2687 15.7518L6.70301 15.1861C6.17213 15.717 5.88788 16.0012 5.37719 16.5119L5.94288 17.0776ZM7.26872 15.7518C7.47798 15.5425 7.81951 15.5425 8.02883 15.7518L8.59452 15.1861C8.07283 14.6644 7.22473 14.6643 6.70299 15.1861L7.26872 15.7518ZM8.02883 15.7518C8.23905 15.962 8.23908 16.3016 8.02881 16.512L8.59454 17.0776C9.11714 16.5549 9.11718 15.7088 8.59452 15.1861L8.02883 15.7518ZM8.02883 16.5119L6.70301 17.8377L7.2687 18.4034L8.59452 17.0776L8.02883 16.5119ZM9.35474 20.4894C9.14447 20.6997 8.80478 20.6996 8.59458 20.4894L8.02889 21.0551C8.55157 21.5778 9.39776 21.5777 9.92037 21.0552L9.35474 20.4894ZM8.59458 20.4894C8.38522 20.2801 8.38522 19.9386 8.59458 19.7293L8.02889 19.1636C7.50712 19.6853 7.50712 20.5334 8.02889 21.0551L8.59458 20.4894ZM8.59458 19.7293L9.9204 18.4034L9.35471 17.8377L8.02889 19.1636L8.59458 19.7293ZM9.92037 18.4035C10.1298 18.1941 10.4713 18.1942 10.6805 18.4034L11.2462 17.8377C10.7246 17.3161 9.87659 17.316 9.35474 17.8377L9.92037 18.4035ZM10.6805 18.4034C10.8899 18.6128 10.8899 18.9543 10.6806 19.1635L11.2462 19.7293C11.768 19.2075 11.768 18.3595 11.2462 17.8377L10.6805 18.4034ZM10.6805 19.1636L9.35471 20.4895L9.92041 21.0551L11.2462 19.7292L10.6805 19.1636ZM11.2463 23.1411C11.0369 22.9318 11.0369 22.5902 11.2462 22.381L10.6805 21.8153C10.1588 22.337 10.1588 23.1851 10.6806 23.7068L11.2463 23.1411ZM11.2462 22.381L12.5721 21.0551L12.0064 20.4894L10.6805 21.8153L11.2462 22.381ZM12.5721 21.0551C12.7823 20.8449 13.1219 20.8449 13.3323 21.0552L13.8979 20.4894C13.3752 19.9668 12.5291 19.9668 12.0064 20.4894L12.5721 21.0551ZM13.3322 21.0551C13.5425 21.2654 13.5425 21.6051 13.3322 21.8153L13.8979 22.381C14.4206 21.8583 14.4205 21.0122 13.8979 20.4895L13.3322 21.0551ZM13.3322 21.8153L12.0064 23.1411L12.5721 23.7068L13.8979 22.381L13.3322 21.8153ZM12.0064 23.1411C11.7971 23.3504 11.4556 23.3503 11.2463 23.1411L10.6806 23.7068C11.2023 24.2284 12.0503 24.2285 12.5721 23.7068L12.0064 23.1411ZM15.9838 24.4668L14.6579 25.7927L15.2236 26.3584L16.5495 25.0325L15.9838 24.4668ZM14.6579 25.7927C14.4477 26.0029 14.1082 26.003 13.8978 25.7927L13.3322 26.3584C13.8549 26.881 14.701 26.8811 15.2237 26.3583L14.6579 25.7927ZM13.8979 25.7928C13.6885 25.5834 13.6886 25.2419 13.8979 25.0326L13.3322 24.4669C12.8104 24.9886 12.8105 25.8366 13.3321 26.3584L13.8979 25.7928ZM13.8979 25.0326L15.2237 23.7068L14.658 23.1411L13.3322 24.4669L13.8979 25.0326ZM15.2258 23.7046C15.2258 23.7046 15.2264 23.704 15.2271 23.7033C15.2273 23.7031 15.2278 23.7026 15.2283 23.702C15.2286 23.7018 15.2291 23.7013 15.2296 23.7007C15.2301 23.7002 15.2312 23.699 15.2327 23.6975C15.2334 23.6967 15.2348 23.6952 15.2365 23.6934C15.2374 23.6924 15.2387 23.691 15.2403 23.6892C15.2416 23.6876 15.2444 23.6845 15.2477 23.6805C15.2493 23.6786 15.2529 23.6741 15.255 23.6715C15.2579 23.6678 15.265 23.6583 15.2691 23.6525C15.2759 23.6424 15.2947 23.6105 15.3055 23.5883C15.3291 23.5203 15.2827 23.2161 15.1022 23.0579C14.962 23.0245 14.7819 23.0569 14.7463 23.0744C14.7318 23.0829 14.7101 23.0972 14.7027 23.1026C14.6981 23.106 14.6904 23.112 14.6874 23.1145C14.6852 23.1163 14.6814 23.1195 14.6797 23.1209C14.6762 23.1239 14.6735 23.1264 14.672 23.1277C14.6704 23.1292 14.669 23.1305 14.6681 23.1313C14.6664 23.1329 14.665 23.1342 14.6643 23.1349C14.6628 23.1363 14.6617 23.1375 14.6612 23.1379C14.6602 23.1389 14.6594 23.1397 14.6591 23.14C14.6588 23.1403 14.6585 23.1406 14.6583 23.1408C14.658 23.1411 14.6577 23.1414 14.6576 23.1415C14.6573 23.1418 14.6571 23.142 14.6569 23.1422C14.6568 23.1423 14.6565 23.1426 14.6562 23.1428C14.6561 23.143 14.6558 23.1433 14.6555 23.1436C14.6553 23.1438 14.655 23.1441 14.6547 23.1444C14.6544 23.1447 14.6536 23.1455 14.6526 23.1466C14.6521 23.1471 14.6509 23.1484 14.6494 23.15C14.6486 23.1508 14.6471 23.1524 14.6452 23.1544C14.6443 23.1555 14.6428 23.1571 14.641 23.1592C14.6395 23.1609 14.6362 23.1646 14.6322 23.1695C14.6302 23.1719 14.6256 23.1777 14.623 23.1811C14.6191 23.1863 14.6091 23.2004 14.6033 23.2093C14.5926 23.2272 14.5617 23.2965 14.5477 23.35C14.5628 23.5546 14.8442 23.8121 15.0324 23.8133C15.08 23.799 15.1426 23.7693 15.1593 23.759C15.1677 23.7534 15.1811 23.7438 15.186 23.74C15.1894 23.7374 15.195 23.7328 15.1973 23.7309C15.199 23.7294 15.2021 23.7268 15.2035 23.7256C15.2064 23.7231 15.2087 23.721 15.21 23.7198C15.2115 23.7185 15.2127 23.7174 15.2135 23.7166C15.2151 23.7151 15.2163 23.7139 15.217 23.7133C15.2184 23.712 15.2195 23.7109 15.2199 23.7105C15.2205 23.7099 15.2209 23.7095 15.2212 23.7092C15.2218 23.7087 15.2222 23.7083 15.2224 23.708C15.2231 23.7074 15.2237 23.7068 15.2237 23.7068L14.658 23.1411C14.658 23.1411 14.6586 23.1405 14.6592 23.1398C14.6594 23.1396 14.6599 23.1392 14.6604 23.1387C14.6607 23.1384 14.6611 23.138 14.6617 23.1374C14.6621 23.137 14.6632 23.136 14.6646 23.1346C14.6653 23.134 14.6666 23.1328 14.6682 23.1313C14.669 23.1305 14.6702 23.1294 14.6716 23.1281C14.6729 23.1269 14.6752 23.1248 14.6782 23.1223C14.6795 23.1211 14.6826 23.1185 14.6843 23.117C14.6867 23.1151 14.6923 23.1105 14.6956 23.1079C14.7006 23.1041 14.7139 23.0945 14.7224 23.0889C14.739 23.0786 14.8016 23.0489 14.8493 23.0346C15.0375 23.0358 15.3189 23.2933 15.3339 23.4979C15.32 23.5514 15.2891 23.6207 15.2784 23.6386C15.2725 23.6475 15.2626 23.6616 15.2587 23.6668C15.256 23.6702 15.2514 23.676 15.2494 23.6784C15.2454 23.6833 15.2421 23.687 15.2406 23.6887C15.2388 23.6908 15.2373 23.6924 15.2364 23.6935C15.2345 23.6955 15.233 23.6971 15.2323 23.6979C15.2307 23.6995 15.2295 23.7008 15.2291 23.7013C15.228 23.7024 15.2272 23.7032 15.227 23.7035C15.2266 23.7038 15.2263 23.7041 15.2261 23.7043C15.2258 23.7046 15.2255 23.7049 15.2254 23.705C15.2251 23.7053 15.2249 23.7056 15.2248 23.7057C15.2246 23.7058 15.2244 23.7061 15.2241 23.7064C15.224 23.7065 15.2237 23.7067 15.2234 23.7071C15.2232 23.7072 15.2229 23.7075 15.2226 23.7079C15.2223 23.7081 15.2215 23.7089 15.2205 23.7099C15.22 23.7104 15.2189 23.7115 15.2174 23.7129C15.2167 23.7136 15.2153 23.7149 15.2136 23.7165C15.2127 23.7174 15.2113 23.7186 15.2097 23.7201C15.2083 23.7214 15.2055 23.7239 15.202 23.7269C15.2004 23.7283 15.1965 23.7315 15.1943 23.7334C15.1913 23.7358 15.1836 23.7418 15.1791 23.7453C15.1716 23.7506 15.1499 23.7649 15.1354 23.7734C15.0998 23.791 14.9198 23.8234 14.7796 23.79C14.5991 23.6317 14.5526 23.3275 14.5762 23.2595C14.5871 23.2373 14.6058 23.2055 14.6126 23.1954C14.6167 23.1895 14.6238 23.18 14.6267 23.1763C14.6288 23.1737 14.6324 23.1692 14.634 23.1673C14.6373 23.1633 14.6401 23.1602 14.6415 23.1587C14.643 23.1569 14.6444 23.1554 14.6452 23.1545C14.6469 23.1526 14.6483 23.1511 14.649 23.1504C14.6505 23.1488 14.6516 23.1476 14.6521 23.1471C14.6526 23.1466 14.6531 23.1461 14.6534 23.1458C14.6539 23.1452 14.6544 23.1448 14.6546 23.1445C14.655 23.1441 14.6554 23.1438 14.6555 23.1436C14.6556 23.1435 14.6558 23.1433 14.6558 23.1433L15.2258 23.7046ZM15.2236 23.7069C15.433 23.4976 15.7745 23.4976 15.9838 23.7067L16.5493 23.1409C16.0275 22.6194 15.1798 22.6197 14.6581 23.141L15.2236 23.7069ZM16.2665 23.8238C16.2964 23.8238 16.3472 23.8205 16.4058 23.7988C16.4661 23.7764 16.5508 23.7276 16.6096 23.6296C16.7399 23.4124 16.6223 23.2138 16.5494 23.1409C16.4765 23.0681 16.278 22.9505 16.0607 23.0808C15.9628 23.1396 15.9139 23.2243 15.8916 23.2845C15.8698 23.3431 15.8665 23.394 15.8665 23.4238H16.6665C16.6665 23.4536 16.6633 23.5045 16.6415 23.5631C16.6191 23.6233 16.5703 23.708 16.4723 23.7668C16.2551 23.8971 16.0566 23.7795 15.9837 23.7066C15.9108 23.6338 15.7932 23.4352 15.9236 23.218C15.9823 23.12 16.0671 23.0712 16.1273 23.0488C16.1859 23.0271 16.2367 23.0238 16.2665 23.0238V23.8238ZM15.9836 23.7065C16.193 23.9161 16.1928 24.2579 15.9838 24.4668L16.5495 25.0326C17.0714 24.5108 17.0706 23.6626 16.5495 23.1411L15.9836 23.7065ZM18.6355 27.1186C18.4253 27.3288 18.0857 27.3288 17.8754 27.1186L17.3097 27.6843C17.8324 28.2069 18.6786 28.2069 19.2012 27.6843L18.6355 27.1186ZM17.8754 27.1186L17.2124 26.4557L16.6468 27.0214L17.3097 27.6843L17.8754 27.1186ZM17.2124 27.0214L17.8754 26.3585L17.3097 25.7928L16.6468 26.4557L17.2124 27.0214ZM17.8754 26.3585C18.1408 26.0931 18.3496 25.7918 18.5025 25.4707L17.7803 25.1267C17.6655 25.3677 17.509 25.5935 17.3097 25.7928L17.8754 26.3585ZM17.8586 25.5815L18.6355 26.3585L19.2012 25.7928L18.4243 25.0158L17.8586 25.5815ZM18.6355 26.3585C18.8457 26.5686 18.8458 26.9083 18.6355 27.1186L19.2012 27.6843C19.7238 27.1616 19.7239 26.3154 19.2012 25.7928L18.6355 26.3585ZM26.5906 19.1636C26.3813 19.3728 26.0398 19.3729 25.8304 19.1635L25.2648 19.7293C25.7865 20.2509 26.6345 20.251 27.1562 19.7293L26.5906 19.1636ZM25.8304 19.1636L21.29 14.6232L20.7243 15.1889L25.2647 19.7293L25.8304 19.1636ZM21.2901 14.6232C20.7678 14.1008 19.9208 14.1008 19.3985 14.6232L19.9642 15.1889C20.1741 14.9789 20.5145 14.979 20.7243 15.1888L21.2901 14.6232ZM19.3985 14.6232C18.8762 15.1455 18.8762 15.9923 19.3985 16.5147L19.9642 15.949C19.7543 15.7391 19.7543 15.3988 19.9642 15.1889L19.3985 14.6232ZM19.3985 16.5147L23.9389 21.0551L24.5046 20.4894L19.9642 15.949L19.3985 16.5147ZM23.9389 21.055C24.1482 21.2644 24.1482 21.6059 23.9389 21.8152L24.5046 22.3809C25.0263 21.8592 25.0263 21.0112 24.5046 20.4894L23.9389 21.055ZM23.9389 21.8152C23.7288 22.0253 23.3892 22.0255 23.1789 21.8153L22.6134 22.3812C23.1363 22.9036 23.9822 22.9032 24.5046 22.3809L23.9389 21.8152ZM23.179 21.8154L18.6969 17.3334L18.1313 17.8991L22.6133 22.3811L23.179 21.8154ZM18.697 17.3335C18.1747 16.8111 17.3278 16.8111 16.8054 17.3334L17.3711 17.8991C17.5811 17.6892 17.9214 17.6892 18.1312 17.8991L18.697 17.3335ZM16.8054 17.3334C16.2831 17.8558 16.2831 18.7026 16.8054 19.2249L17.3711 18.6593C17.1612 18.4493 17.1612 18.109 17.3711 17.8991L16.8054 17.3334ZM16.8054 19.2249L21.2872 23.7067L21.8529 23.141L17.3711 18.6593L16.8054 19.2249ZM21.2872 23.7067C21.4966 23.9161 21.4966 24.2575 21.2872 24.4668L21.8529 25.0326C22.3747 24.5108 22.3747 23.6628 21.8529 23.141L21.2872 23.7067ZM21.2872 24.4668C21.0779 24.6762 20.7364 24.6762 20.527 24.4668L19.9614 25.0326C20.4832 25.5543 21.3311 25.5543 21.8529 25.0325L21.2872 24.4668ZM20.527 24.4668L17.8754 21.8151L17.3097 22.3808L19.9613 25.0325L20.527 24.4668ZM17.8754 21.8152C17.2942 21.2339 16.5434 20.9229 15.7823 20.8809L15.7382 21.6797C16.3114 21.7113 16.8738 21.9448 17.3097 22.3808L17.8754 21.8152ZM16.1596 21.2588C16.1169 20.4672 15.788 19.7278 15.2237 19.1635L14.6581 19.7292C15.0829 20.154 15.3287 20.7073 15.3608 21.3018L16.1596 21.2588ZM15.2237 19.1635C14.6594 18.5992 13.9201 18.2703 13.1285 18.2276L13.0854 19.0265C13.68 19.0585 14.2332 19.3044 14.6581 19.7292L15.2237 19.1635ZM13.5063 18.605C13.4643 17.8437 13.1533 17.093 12.5721 16.5119L12.0064 17.0775C12.4424 17.5135 12.6759 18.0758 12.7076 18.6491L13.5063 18.605ZM12.5721 16.5119C12.0078 15.9476 11.2684 15.6187 10.4769 15.576L10.4338 16.3748C11.0283 16.4069 11.5816 16.6527 12.0064 17.0775L12.5721 16.5119ZM10.8547 15.9534C10.8127 15.1921 10.5016 14.4413 9.92038 13.8601L9.35473 14.4259C9.79073 14.8618 10.0243 15.4242 10.0559 15.9974L10.8547 15.9534ZM9.92038 13.8601C8.72832 12.6682 6.82727 12.6114 5.5663 13.6868L6.0854 14.2955C7.03194 13.4883 8.46053 13.5318 9.35473 14.4259L9.92038 13.8601ZM6.19694 13.8418C6.02953 13.4257 5.95173 12.9503 5.86935 12.4304L5.07921 12.5557C5.15883 13.0581 5.24767 13.6257 5.45475 14.1404L6.19694 13.8418ZM5.86935 12.4304C5.77411 11.8295 5.67166 11.1536 5.33173 10.5954L4.64846 11.0115C4.89103 11.4098 4.97808 11.9176 5.07921 12.5557L5.86935 12.4304ZM5.27293 11.0863L10.8522 5.50698L10.2865 4.9413L4.70725 10.5206L5.27293 11.0863ZM10.4186 5.59463C11.3807 5.98622 12.2913 5.94597 13.0487 5.91563L13.0167 5.11628C12.2478 5.14707 11.5018 5.17182 10.7202 4.85365L10.4186 5.59463ZM13.0488 5.91563C13.503 5.89733 13.9086 5.88228 14.3284 5.93664L14.4311 5.14327C13.9339 5.07888 13.4623 5.09833 13.0166 5.11628L13.0488 5.91563ZM14.1472 5.21452C13.8684 5.41377 13.5956 5.64185 13.3322 5.90524L13.8979 6.47093C14.129 6.23981 14.368 6.04002 14.6124 5.86539L14.1472 5.21452ZM13.3322 5.90524L10.6805 8.55688L11.2462 9.12257L13.8979 6.47093L13.3322 5.90524ZM10.6805 8.55688C9.42774 9.80967 9.42783 11.8473 10.6805 13.1L11.2462 12.5343C10.3059 11.594 10.3059 10.0629 11.2462 9.12257L10.6805 8.55688ZM10.6805 13.1C11.936 14.3555 13.9683 14.3555 15.2237 13.1L14.6581 12.5343C13.715 13.4774 12.1893 13.4774 11.2462 12.5343L10.6805 13.1ZM15.2237 13.1L17.8754 10.4484L17.3097 9.8827L14.6581 12.5343L15.2237 13.1ZM17.8754 10.4484C18.0856 10.2382 18.4253 10.2382 18.6355 10.4484L19.2012 9.8827C18.6785 9.36002 17.8323 9.36015 17.3097 9.88268L17.8754 10.4484ZM18.6355 10.4484L26.5905 18.4034L27.1562 17.8377L19.2012 9.8827L18.6355 10.4484ZM26.5905 18.4033C26.7999 18.6128 26.7998 18.9543 26.5906 19.1636L27.1562 19.7293C27.678 19.2075 27.6779 18.3595 27.1562 17.8377L26.5905 18.4033ZM22.5347 5.65023C22.8296 5.44414 22.8179 5.43378 24.6877 3.56411L24.1221 2.9984C22.2 4.92038 22.295 4.84177 22.0765 4.99443L22.5347 5.65023ZM24.1221 3.5641C24.9827 4.42472 24.0827 3.52848 29.45 8.86695L30.0142 8.29974C24.6462 2.96065 25.5474 3.85804 24.6877 2.99841L24.1221 3.5641ZM29.4505 8.29924L27.3585 10.3727L27.9216 10.9409L30.0137 8.86745L29.4505 8.29924ZM27.9229 10.374L22.5884 5.03949L22.0227 5.60517L27.3572 10.9396L27.9229 10.374Z" fill="#4B9A4E" mask="url(#path-1-outside-1_923_4)"/>
</svg>
