<svg width="24" height="32" viewBox="0 0 24 32" fill="none" xmlns="http://www.w3.org/2000/svg">
<path d="M23.721 23.9891L22.2952 31.2433C22.2088 31.6829 21.8234 32 21.3753 32H2.6253C2.17724 32 1.7918 31.6829 1.7053 31.2433L23.721 23.9891ZM23.721 23.9891C24.0694 22.2473 22.7365 20.625 20.9631 20.625H19.9564L23.721 23.9891ZM19.7678 20.6915L19.8149 20.825H19.9564H20.9631C22.6104 20.825 23.8485 22.3319 23.5249 23.9498L23.5247 23.9505L22.0989 31.2047L22.0989 31.2048C22.031 31.5506 21.7278 31.8 21.3753 31.8H2.6253C2.27283 31.8 1.96959 31.5506 1.90154 31.2047L0.475109 23.9475L0.474978 23.9468C0.152727 22.3358 1.3876 20.825 3.03736 20.825H4.04405H4.18559L4.23267 20.6915C4.96815 18.6059 6.50876 16.9151 8.48942 15.9835L8.81295 15.8314L8.51398 15.6353C7.63309 15.0576 6.91479 14.2731 6.41652 13.3607L6.30289 13.1526L6.11694 13.2997C5.6715 13.6519 5.11027 13.8625 4.50024 13.8625C3.05988 13.8625 1.88774 12.6904 1.88774 11.25V9.375C1.88774 9.0497 1.94797 8.73847 2.05709 8.45105L2.06331 8.43467L2.06658 8.41746C2.95624 3.74406 7.07241 0.2 12.0003 0.2C16.9282 0.2 21.0443 3.74406 21.9339 8.41746L21.9372 8.43467L21.9434 8.45105C22.0525 8.73847 22.1127 9.04964 22.1127 9.375V11.25C22.1127 12.3846 21.385 13.3531 20.3709 13.7128L20.2377 13.76V13.9012V14.0625C20.2377 15.5029 19.0656 16.675 17.6252 16.675H17.3081H16.7428L17.1823 17.0305C18.3528 17.9771 19.2555 19.2386 19.7678 20.6915ZM16.4519 14.8572L16.1026 15.2H16.592H17.6253C18.2526 15.2 18.7628 14.6899 18.7628 14.0625V13.9012V13.7599L18.6296 13.7127C18.3576 13.6162 18.1063 13.4757 17.8836 13.2997L17.6976 13.1527L17.584 13.3607C17.2829 13.912 16.9012 14.4164 16.4519 14.8572ZM20.5207 8.89387L20.5151 8.86041L20.4988 8.83064C20.306 8.47822 19.9312 8.2375 19.5003 8.2375C18.8729 8.2375 18.3628 8.74761 18.3628 9.375V11.25C18.3628 11.8774 18.8729 12.3875 19.5003 12.3875C20.1277 12.3875 20.6378 11.8774 20.6378 11.25V10.3125C20.6378 9.8293 20.5973 9.35553 20.5207 8.89387ZM3.50177 8.83066L3.48549 8.86042L3.47994 8.89387C3.4033 9.35553 3.3628 9.82936 3.3628 10.3125V11.25C3.3628 11.8774 3.87291 12.3875 4.5003 12.3875C5.12769 12.3875 5.6378 11.8774 5.6378 11.25V9.375C5.6378 8.74761 5.12769 8.2375 4.5003 8.2375C4.06942 8.2375 3.69456 8.47814 3.50177 8.83066ZM4.26371 6.47478L4.11652 6.77033L4.44663 6.7639C4.46144 6.76361 4.46997 6.76328 4.47689 6.76301C4.48457 6.76272 4.49025 6.7625 4.5003 6.7625C5.11044 6.7625 5.67173 6.97323 6.11725 7.32551L6.30292 7.47232L6.41668 7.26475C7.49873 5.29057 9.59623 3.95 12.0003 3.95C14.4044 3.95 16.5019 5.29057 17.5839 7.26475L17.6977 7.47233L17.8834 7.3255C18.3288 6.97323 18.8902 6.7625 19.5003 6.7625C19.5103 6.7625 19.5161 6.76272 19.5238 6.76302C19.5307 6.76328 19.5392 6.76361 19.554 6.7639L19.8841 6.77035L19.7369 6.47478C18.3217 3.63316 15.3861 1.675 12.0003 1.675C8.61454 1.675 5.67892 3.63316 4.26371 6.47478ZM14.1722 14.4876L14.2762 14.6428L14.4382 14.5496C15.9323 13.6892 16.8878 12.0823 16.8878 10.3125C16.8878 7.61736 14.6954 5.425 12.0003 5.425C9.30516 5.425 7.1128 7.61736 7.1128 10.3125C7.1128 12.0822 8.06829 13.6891 9.56243 14.5496L9.72438 14.6428L9.8284 14.4876C10.2981 13.7865 11.0965 13.325 12.0003 13.325C12.9041 13.325 13.7025 13.7865 14.1722 14.4876ZM9.73797 17.2413L9.65139 17.0917L9.49083 17.1557C7.90137 17.7891 6.61576 19.0018 5.88797 20.5394L5.7528 20.825H6.06874H17.9319H18.2478L18.1126 20.5394C17.3848 19.0018 16.0992 17.7891 14.5098 17.1557L14.3492 17.0917L14.2626 17.2413C13.81 18.0234 12.9654 18.55 12.0003 18.55C11.0352 18.55 10.1905 18.0234 9.73797 17.2413ZM20.6041 30.325H20.7686L20.8004 30.1636L22.0779 23.6636C22.0779 23.6635 22.078 23.6634 22.078 23.6633C22.2201 22.9519 21.6772 22.3 20.9632 22.3H20.9454H20.9273H20.9089H20.8903H20.8715H20.8524H20.833H20.8134H20.7935H20.7734H20.7531H20.7325H20.7116H20.6905H20.6692H20.6476H20.6258H20.6037H20.5814H20.5589H20.5361H20.5131H20.4898H20.4663H20.4426H20.4186H20.3945H20.3701H20.3454H20.3206H20.2955H20.2701H20.2446H20.2188H20.1929H20.1667H20.1402H20.1136H20.0867H20.0597H20.0324H20.0049H19.9772H19.9492H19.9211H19.8927H19.8642H19.8354H19.8065H19.7773H19.7479H19.7183H19.6886H19.6586H19.6284H19.598H19.5675H19.5367H19.5057H19.4746H19.4432H19.4117H19.38H19.3481H19.316H19.2837H19.2512H19.2185H19.1857H19.1527H19.1195H19.0861H19.0525H19.0188H18.9848H18.9507H18.9165H18.882H18.8474H18.8126H18.7777H18.7426H18.7073H18.6718H18.6362H18.6004H18.5645H18.5283H18.4921H18.4556H18.4191H18.3823H18.3454H18.3084H18.2711H18.2338H18.1963H18.1586H18.1208H18.0828H18.0447H18.0064H17.968H17.9295H17.8908H17.852H17.813H17.7739H17.7347H17.6953H17.6557H17.6161H17.5763H17.5364H17.4963H17.4561H17.4158H17.3754H17.3348H17.2941H17.2533H17.2124H17.1713H17.1301H17.0888H17.0474H17.0058H16.9642H16.9224H16.8805H16.8385H16.7964H16.7542H16.7118H16.6694H16.6268H16.5842H16.5414H16.4985H16.4556H16.4125H16.3693H16.326H16.2827H16.2392H16.1956H16.152H16.1082H16.0644H16.0204H15.9764H15.9323H15.888H15.8437H15.7994H15.7549H15.7103H15.6657H15.621H15.5762H15.5313H15.4863H15.4413H15.3962H15.351H15.3057H15.2604H15.215H15.1695H15.1239H15.0783H15.0326H14.9869H14.9411H14.8952H14.8493H14.8032H14.7572H14.7111H14.6649H14.6186H14.5723H14.526H14.4796H14.4331H14.3866H14.3401H14.2935H14.2468H14.2001H14.1534H14.1066H14.0597H14.0129H13.9659H13.919H13.872H13.8249H13.7779H13.7307H13.6836H13.6364H13.5892H13.542H13.4947H13.4474H13.4001H13.3527H13.3053H13.2579H13.2105H13.163H13.1156H13.0681H13.0206H12.973H12.9255H12.8779H12.8303H12.7828H12.7352H12.6875H12.6399H12.5923H12.5447H12.497H12.4494H12.4017H12.354H12.3064H12.2587H12.2111H12.1634H12.1157H12.0681H12.0204H11.9728H11.9252H11.8775H11.8299H11.7823H11.7347H11.6871H11.6396H11.592H11.5445H11.4969H11.4494H11.402H11.3545H11.3071H11.2596H11.2122H11.1649H11.1175H11.0702H11.0229H10.9757H10.9284H10.8812H10.8341H10.7869H10.7398H10.6928H10.6458H10.5988H10.5518H10.5049H10.4581H10.4113H10.3645H10.3178H10.2711H10.2244H10.1779H10.1313H10.0848H10.0384H9.99202H9.9457H9.89943H9.85322H9.80706H9.76096H9.71493H9.66895H9.62304H9.57719H9.5314H9.48568H9.44002H9.39444H9.34892H9.30347H9.2581H9.21279H9.16756H9.12241H9.07733H9.03232H8.9874H8.94255H8.89778H8.8531H8.8085H8.76398H8.71954H8.67519H8.63093H8.58676H8.54267H8.49868H8.45477H8.41096H8.36725H8.32362H8.2801H8.23667H8.19334H8.15011H8.10697H8.06394H8.02102H7.97819H7.93548H7.89286H7.85036H7.80796H7.76567H7.7235H7.68143H7.63948H7.59764H7.55592H7.51431H7.47282H7.43145H7.39019H7.34906H7.30805H7.26717H7.2264H7.18576H7.14525H7.10487H7.06461H7.02449H6.98449H6.94463H6.9049H6.8653H6.82584H6.78652H6.74733H6.70828H6.66938H6.63061H6.59198H6.5535H6.51516H6.47697H6.43893H6.40103H6.36328H6.32568H6.28823H6.25093H6.21379H6.1768H6.13997H6.10329H6.06678H6.03042H5.99422H5.95818H5.9223H5.88659H5.85104H5.81566H5.78044H5.7454H5.71052H5.67581H5.64127H5.60691H5.57272H5.5387H5.50486H5.4712H5.43771H5.4044H5.37128H5.33833H5.30557H5.27299H5.2406H5.20839H5.17637H5.14454H5.1129H5.08144H5.05018H5.01911H4.98824H4.95756H4.92708H4.89679H4.8667H4.83681H4.80712H4.77764H4.74835H4.71927H4.6904H4.66173H4.63327H4.60502H4.57697H4.54914H4.52152H4.49411H4.46692H4.43994H4.41318H4.38663H4.36031H4.3342H4.30832H4.28265H4.25721H4.232H4.20701H4.18224H4.1577H4.1334H4.10932H4.08547H4.06185H4.03847H4.01532H3.99241H3.96974H3.9473H3.9251H3.90314H3.88142H3.85994H3.83871H3.81772H3.79698H3.77648H3.75624H3.73624H3.71649H3.69699H3.67774H3.65875H3.64001H3.62153H3.60331H3.58534H3.56763H3.55018H3.533H3.51607H3.49941H3.48302H3.46689H3.45102H3.43543H3.4201H3.40505H3.39026H3.37575H3.36151H3.34755H3.33386H3.32045H3.30732H3.29447H3.2819H3.26961H3.2576H3.24588H3.23444H3.22329H3.21242H3.20184H3.19156H3.18156H3.17185H3.16244H3.15332H3.1445H3.13597H3.12774H3.11981H3.11218H3.10485H3.09782H3.09109H3.08467H3.07856H3.07275H3.06724H3.06205H3.05716H3.05259H3.04833H3.04438H3.04074H3.03743C2.32017 22.3 1.78123 22.9561 1.92195 23.6603C1.92196 23.6604 1.92198 23.6605 1.922 23.6606L3.20018 30.1636L3.23191 30.325H3.39643H20.6041ZM12.0003 17.075C12.6277 17.075 13.1378 16.5649 13.1378 15.9375C13.1378 15.3101 12.6277 14.8 12.0003 14.8C11.3729 14.8 10.8628 15.3101 10.8628 15.9375C10.8628 16.5649 11.3729 17.075 12.0003 17.075Z" fill="#FF008A" stroke="#FF008A" stroke-width="0.4"/>
</svg>
