<svg width="32" height="32" viewBox="0 0 32 32" fill="none" xmlns="http://www.w3.org/2000/svg">
<path d="M8.41995 23.1111C9.34614 23.1111 10.1039 23.9111 10.1039 24.8889C10.1039 26.8444 8.58834 28.4444 6.73596 28.4444C6.44968 28.4444 6.18024 28.4089 5.89396 28.3556C6.416 27.3778 6.73596 26.2044 6.73596 24.8889C6.73596 23.9111 7.49375 23.1111 8.41995 23.1111ZM28.0721 0C27.6343 0 27.2133 0.177778 26.8765 0.515556L11.7879 16.4444L16.4189 21.3333L31.5074 5.40444C32.1642 4.71111 32.1642 3.59111 31.5074 2.89778L29.2509 0.515556C28.9141 0.16 28.4931 0 28.0721 0ZM8.41995 19.5556C5.62452 19.5556 3.36798 21.9378 3.36798 24.8889C3.36798 27.2178 1.41455 28.4444 0 28.4444C1.54927 30.6133 4.19313 32 6.73596 32C10.4576 32 13.4719 28.8178 13.4719 24.8889C13.4719 21.9378 11.2154 19.5556 8.41995 19.5556Z" fill="#FFAC2F"/>
</svg>
