<svg width="28" height="20" viewBox="0 0 28 20" fill="none" xmlns="http://www.w3.org/2000/svg">
<path d="M10 12.3332C6.88001 12.3332 0.666672 13.8932 0.666672 16.9998V19.3332H19.3333V16.9998C19.3333 13.8932 13.12 12.3332 10 12.3332ZM3.78667 16.6665C4.90667 15.8932 7.61334 14.9998 10 14.9998C12.3867 14.9998 15.0933 15.8932 16.2133 16.6665H3.78667ZM10 9.99984C12.5733 9.99984 14.6667 7.90651 14.6667 5.33317C14.6667 2.75984 12.5733 0.666504 10 0.666504C7.42667 0.666504 5.33334 2.75984 5.33334 5.33317C5.33334 7.90651 7.42667 9.99984 10 9.99984ZM10 3.33317C11.1067 3.33317 12 4.2265 12 5.33317C12 6.43984 11.1067 7.33317 10 7.33317C8.89334 7.33317 8.00001 6.43984 8.00001 5.33317C8.00001 4.2265 8.89334 3.33317 10 3.33317ZM19.3867 12.4132C20.9333 13.5332 22 15.0265 22 16.9998V19.3332H27.3333V16.9998C27.3333 14.3065 22.6667 12.7732 19.3867 12.4132ZM18 9.99984C20.5733 9.99984 22.6667 7.90651 22.6667 5.33317C22.6667 2.75984 20.5733 0.666504 18 0.666504C17.28 0.666504 16.6133 0.839837 16 1.13317C16.84 2.31984 17.3333 3.77317 17.3333 5.33317C17.3333 6.89317 16.84 8.34651 16 9.53317C16.6133 9.82651 17.28 9.99984 18 9.99984Z" fill="#FF2F9F"/>
</svg>
