<svg width="32" height="22" viewBox="0 0 32 22" fill="none" xmlns="http://www.w3.org/2000/svg">
<path class="transition-all duration-300 group-hover:fill-white" d="M5.33333 4.3335C5.33333 3.60016 5.93333 3.00016 6.66667 3.00016H28C28.7333 3.00016 29.3333 2.40016 29.3333 1.66683C29.3333 0.933496 28.7333 0.333496 28 0.333496H5.33333C3.86667 0.333496 2.66667 1.5335 2.66667 3.00016V17.6668H2C0.893333 17.6668 0 18.5602 0 19.6668C0 20.7735 0.893333 21.6668 2 21.6668H16.6667C17.7733 21.6668 18.6667 20.7735 18.6667 19.6668C18.6667 18.5602 17.7733 17.6668 16.6667 17.6668H5.33333V4.3335ZM30.6667 5.66683H22.6667C21.9333 5.66683 21.3333 6.26683 21.3333 7.00016V20.3335C21.3333 21.0668 21.9333 21.6668 22.6667 21.6668H30.6667C31.4 21.6668 32 21.0668 32 20.3335V7.00016C32 6.26683 31.4 5.66683 30.6667 5.66683ZM29.3333 17.6668H24V8.3335H29.3333V17.6668Z" fill="#9D79D7"/>
</svg>
