<svg width="30" height="30" viewBox="0 0 30 30" fill="none" xmlns="http://www.w3.org/2000/svg">
<mask id="path-1-outside-1_3_560" maskUnits="userSpaceOnUse" x="0" y="0" width="30" height="30" fill="black">
<rect fill="white" width="30" height="30"/>
<path fill-rule="evenodd" clip-rule="evenodd" d="M1 15C1 7.28042 7.28042 1 15 1C22.7196 1 29 7.28042 29 15C29 22.7196 22.7196 29 15 29C7.28042 29 1 22.7196 1 15ZM14.4462 27.1209C14.2669 24.0202 15.3017 21.0123 17.3484 18.6792L14.9688 16.3036L7.07679 24.1822C9.0736 25.9075 11.637 26.9941 14.4462 27.1209ZM5.76155 22.8576L13.6477 14.9848L10.5257 11.8681C8.41637 13.7461 5.74657 14.7693 2.86822 14.8035C2.86717 14.8689 2.86665 14.9344 2.86665 15C2.86665 17.9945 3.957 20.7391 5.76155 22.8576ZM3.04292 12.9322C5.35091 12.86 7.49004 12.0327 9.20147 10.5461L5.77557 7.12598C4.38821 8.7489 3.4207 10.7409 3.04292 12.9322ZM7.09314 5.80374L10.4964 9.20118C11.8969 7.45766 12.6714 5.30627 12.6938 3.0865C10.5817 3.49451 8.66311 4.452 7.09314 5.80374ZM14.5603 2.87451C14.7062 2.86928 14.8528 2.86665 15 2.86665C18.0019 2.86665 20.7526 3.96239 22.8733 5.77491L14.9688 13.666L11.8242 10.5267C13.6159 8.37308 14.5875 5.66334 14.5603 2.87451ZM24.1956 7.09238L16.2898 14.9848L18.6853 17.3762C21.0429 15.4165 24.0854 14.4446 27.1293 14.6832C27.0547 11.7886 25.9615 9.14303 24.1956 7.09238ZM27.035 16.5483C24.516 16.3374 21.9916 17.1144 20.0129 18.7016L24.2097 22.8912C25.714 21.138 26.7276 18.952 27.035 16.5483ZM22.8897 24.211C21.0796 25.7637 18.8083 26.7932 16.3125 27.0629C16.1508 24.4769 16.9928 21.9644 18.6726 20.0012L22.8897 24.211Z"/>
</mask>
<path fill-rule="evenodd" clip-rule="evenodd" d="M1 15C1 7.28042 7.28042 1 15 1C22.7196 1 29 7.28042 29 15C29 22.7196 22.7196 29 15 29C7.28042 29 1 22.7196 1 15ZM14.4462 27.1209C14.2669 24.0202 15.3017 21.0123 17.3484 18.6792L14.9688 16.3036L7.07679 24.1822C9.0736 25.9075 11.637 26.9941 14.4462 27.1209ZM5.76155 22.8576L13.6477 14.9848L10.5257 11.8681C8.41637 13.7461 5.74657 14.7693 2.86822 14.8035C2.86717 14.8689 2.86665 14.9344 2.86665 15C2.86665 17.9945 3.957 20.7391 5.76155 22.8576ZM3.04292 12.9322C5.35091 12.86 7.49004 12.0327 9.20147 10.5461L5.77557 7.12598C4.38821 8.7489 3.4207 10.7409 3.04292 12.9322ZM7.09314 5.80374L10.4964 9.20118C11.8969 7.45766 12.6714 5.30627 12.6938 3.0865C10.5817 3.49451 8.66311 4.452 7.09314 5.80374ZM14.5603 2.87451C14.7062 2.86928 14.8528 2.86665 15 2.86665C18.0019 2.86665 20.7526 3.96239 22.8733 5.77491L14.9688 13.666L11.8242 10.5267C13.6159 8.37308 14.5875 5.66334 14.5603 2.87451ZM24.1956 7.09238L16.2898 14.9848L18.6853 17.3762C21.0429 15.4165 24.0854 14.4446 27.1293 14.6832C27.0547 11.7886 25.9615 9.14303 24.1956 7.09238ZM27.035 16.5483C24.516 16.3374 21.9916 17.1144 20.0129 18.7016L24.2097 22.8912C25.714 21.138 26.7276 18.952 27.035 16.5483ZM22.8897 24.211C21.0796 25.7637 18.8083 26.7932 16.3125 27.0629C16.1508 24.4769 16.9928 21.9644 18.6726 20.0012L22.8897 24.211Z" fill="#4B9A4E"/>
<path d="M14.4462 27.1209L14.4282 27.5205L14.8711 27.5405L14.8455 27.0978L14.4462 27.1209ZM17.3484 18.6792L17.6491 18.943L17.8964 18.661L17.631 18.3961L17.3484 18.6792ZM14.9688 16.3036L15.2514 16.0205L14.9688 15.7384L14.6862 16.0205L14.9688 16.3036ZM7.07679 24.1822L6.79419 23.8991L6.48946 24.2033L6.81527 24.4848L7.07679 24.1822ZM5.76155 22.8576L5.45705 23.117L5.73777 23.4465L6.04416 23.1407L5.76155 22.8576ZM13.6477 14.9848L13.9303 15.2679L14.2139 14.9848L13.9303 14.7017L13.6477 14.9848ZM10.5257 11.8681L10.8083 11.585L10.5414 11.3186L10.2597 11.5693L10.5257 11.8681ZM2.86822 14.8035L2.86346 14.4035L2.47447 14.4081L2.46827 14.7971L2.86822 14.8035ZM3.04292 12.9322L2.64873 12.8643L2.56545 13.3473L3.05543 13.332L3.04292 12.9322ZM9.20147 10.5461L9.46379 10.848L9.78801 10.5664L9.48407 10.263L9.20147 10.5461ZM5.77557 7.12598L6.05817 6.8429L5.75233 6.53758L5.47152 6.86606L5.77557 7.12598ZM7.09314 5.80374L6.83215 5.50062L6.50526 5.78206L6.81054 6.08682L7.09314 5.80374ZM10.4964 9.20118L10.2138 9.48427L10.5291 9.7991L10.8082 9.45169L10.4964 9.20118ZM12.6938 3.0865L13.0938 3.09054L13.0987 2.60088L12.6179 2.69376L12.6938 3.0865ZM14.5603 2.87451L14.546 2.47476L14.1565 2.4887L14.1603 2.8784L14.5603 2.87451ZM22.8733 5.77491L23.1559 6.058L23.4622 5.75213L23.1331 5.47085L22.8733 5.77491ZM14.9688 13.666L14.6862 13.9491L14.9688 14.2312L15.2514 13.9491L14.9688 13.666ZM11.8242 10.5267L11.5167 10.2709L11.2831 10.5517L11.5416 10.8098L11.8242 10.5267ZM24.1956 7.09238L24.4987 6.83137L24.2177 6.50509L23.913 6.8093L24.1956 7.09238ZM16.2898 14.9848L16.0072 14.7017L15.7236 14.9848L16.0072 15.2679L16.2898 14.9848ZM18.6853 17.3762L18.4027 17.6593L18.6607 17.9168L18.941 17.6838L18.6853 17.3762ZM27.1293 14.6832L27.098 15.0819L27.5406 15.1166L27.5291 14.6729L27.1293 14.6832ZM27.035 16.5483L27.4318 16.599L27.4848 16.1846L27.0684 16.1497L27.035 16.5483ZM20.0129 18.7016L19.7626 18.3895L19.4142 18.6691L19.7303 18.9847L20.0129 18.7016ZM24.2097 22.8912L23.9271 23.1743L24.2324 23.4791L24.5133 23.1517L24.2097 22.8912ZM22.8897 24.211L23.1501 24.5146L23.4781 24.2333L23.1723 23.928L22.8897 24.211ZM16.3125 27.0629L15.9133 27.0878L15.9394 27.5055L16.3555 27.4605L16.3125 27.0629ZM18.6726 20.0012L18.9552 19.7181L18.6496 19.4129L18.3687 19.7411L18.6726 20.0012ZM15 0.6C7.05951 0.6 0.6 7.05951 0.6 15H1.4C1.4 7.50134 7.50134 1.4 15 1.4V0.6ZM29.4 15C29.4 7.05951 22.9405 0.6 15 0.6V1.4C22.4987 1.4 28.6 7.50134 28.6 15H29.4ZM15 29.4C22.9405 29.4 29.4 22.9405 29.4 15H28.6C28.6 22.4987 22.4987 28.6 15 28.6V29.4ZM0.6 15C0.6 22.9405 7.05951 29.4 15 29.4V28.6C7.50134 28.6 1.4 22.4987 1.4 15H0.6ZM14.8455 27.0978C14.6723 24.102 15.6717 21.1971 17.6491 18.943L17.0477 18.4154C14.9318 20.8275 13.8615 23.9384 14.0469 27.144L14.8455 27.0978ZM17.631 18.3961L15.2514 16.0205L14.6862 16.5867L17.0658 18.9623L17.631 18.3961ZM14.6862 16.0205L6.79419 23.8991L7.3594 24.4652L15.2514 16.5867L14.6862 16.0205ZM14.4642 26.7213C11.7483 26.5987 9.26981 25.5484 7.33832 23.8795L6.81527 24.4848C8.8774 26.2667 11.5258 27.3895 14.4282 27.5205L14.4642 26.7213ZM6.04416 23.1407L13.9303 15.2679L13.3651 14.7017L5.47895 22.5745L6.04416 23.1407ZM13.9303 14.7017L10.8083 11.585L10.2431 12.1512L13.3651 15.2679L13.9303 14.7017ZM10.2597 11.5693C8.22395 13.3819 5.64747 14.3704 2.86346 14.4035L2.87297 15.2035C5.84568 15.1681 8.60879 14.1104 10.7917 12.1668L10.2597 11.5693ZM3.26665 15C3.26665 14.9365 3.26716 14.8731 3.26816 14.8099L2.46827 14.7971C2.46719 14.8646 2.46665 14.9322 2.46665 15H3.26665ZM6.06606 22.5982C4.32063 20.5491 3.26665 17.8956 3.26665 15H2.46665C2.46665 18.0934 3.59338 20.9291 5.45705 23.117L6.06606 22.5982ZM3.05543 13.332C5.45332 13.257 7.68123 12.3965 9.46379 10.848L8.93915 10.2441C7.29886 11.669 5.2485 12.463 3.03041 12.5324L3.05543 13.332ZM9.48407 10.263L6.05817 6.8429L5.49296 7.40906L8.91887 10.8292L9.48407 10.263ZM3.4371 13.0002C3.80228 10.882 4.73757 8.9558 6.07961 7.38589L5.47152 6.86606C4.03884 8.54199 3.03911 10.5999 2.64873 12.8643L3.4371 13.0002ZM6.81054 6.08682L10.2138 9.48427L10.779 8.9181L7.37574 5.52066L6.81054 6.08682ZM10.8082 9.45169C12.2644 7.63897 13.0704 5.40098 13.0938 3.09054L12.2938 3.08246C12.2723 5.21155 11.5295 7.27635 10.1845 8.95068L10.8082 9.45169ZM7.35413 6.10686C8.87283 4.79927 10.7281 3.87364 12.7696 3.47924L12.6179 2.69376C10.4354 3.11539 8.45339 4.10474 6.83215 5.50062L7.35413 6.10686ZM14.5746 3.27425C14.7158 3.2692 14.8576 3.26665 15 3.26665V2.46665C14.848 2.46665 14.6967 2.46937 14.546 2.47476L14.5746 3.27425ZM15 3.26665C17.9028 3.26665 20.5622 4.32583 22.6134 6.07898L23.1331 5.47085C20.9431 3.59894 18.101 2.46665 15 2.46665V3.26665ZM15.2514 13.9491L23.1559 6.058L22.5907 5.49183L14.6862 13.3829L15.2514 13.9491ZM11.5416 10.8098L14.6862 13.9491L15.2514 13.3829L12.1068 10.2437L11.5416 10.8098ZM14.1603 2.8784C14.1866 5.57156 13.2483 8.18946 11.5167 10.2709L12.1317 10.7826C13.9834 8.5567 14.9884 5.75511 14.9603 2.87061L14.1603 2.8784ZM23.913 6.8093L16.0072 14.7017L16.5724 15.2679L24.4782 7.37547L23.913 6.8093ZM16.0072 15.2679L18.4027 17.6593L18.9679 17.0931L16.5724 14.7017L16.0072 15.2679ZM18.941 17.6838C21.219 15.7903 24.1587 14.8516 27.098 15.0819L27.1605 14.2844C24.0121 14.0376 20.8668 15.0427 18.4296 17.0686L18.941 17.6838ZM23.8925 7.3534C25.6006 9.33692 26.6573 11.8948 26.7294 14.6935L27.5291 14.6729C27.4521 11.6825 26.3224 8.94913 24.4987 6.83137L23.8925 7.3534ZM27.0684 16.1497C24.4463 15.9301 21.8206 16.7388 19.7626 18.3895L20.2632 19.0136C22.1626 17.49 24.5857 16.7446 27.0017 16.9469L27.0684 16.1497ZM19.7303 18.9847L23.9271 23.1743L24.4923 22.6082L20.2955 18.4185L19.7303 18.9847ZM26.6383 16.4975C26.341 18.8211 25.3613 20.9349 23.9061 22.6308L24.5133 23.1517C26.0668 21.3412 27.1141 19.0829 27.4318 16.599L26.6383 16.4975ZM22.6292 23.9074C20.8783 25.4093 18.6822 26.4045 16.2695 26.6652L16.3555 27.4605C18.9343 27.1819 21.2808 26.118 23.1501 24.5146L22.6292 23.9074ZM18.3687 19.7411C16.6213 21.7833 15.7451 24.398 15.9133 27.0878L16.7117 27.0379C16.5566 24.5558 17.3643 22.1455 18.9766 20.2612L18.3687 19.7411ZM23.1723 23.928L18.9552 19.7181L18.39 20.2843L22.6071 24.4941L23.1723 23.928Z" fill="#4B9A4E" mask="url(#path-1-outside-1_3_560)"/>
</svg>
