<svg class="w-5 h-5 lg:w-auto lg:h-auto" width="35" height="34" viewBox="0 0 35 34" fill="none" xmlns="http://www.w3.org/2000/svg">
<path d="M31.5 7.15789H26.25V3.57895C26.25 1.59263 24.6925 0 22.75 0H12.25C10.3075 0 8.75 1.59263 8.75 3.57895V7.15789H3.5C1.5575 7.15789 0 8.75053 0 10.7368V30.4211C0 32.4074 1.5575 34 3.5 34H31.5C33.4425 34 35 32.4074 35 30.4211V10.7368C35 8.75053 33.4425 7.15789 31.5 7.15789ZM12.25 3.57895H22.75V7.15789H12.25V3.57895ZM31.5 30.4211H3.5V26.8421H31.5V30.4211ZM31.5 21.4737H3.5V12.5263C3.5 11.5421 4.2875 10.7368 5.25 10.7368H8.75V12.5263C8.75 13.5105 9.5375 14.3158 10.5 14.3158C11.4625 14.3158 12.25 13.5105 12.25 12.5263V10.7368H22.75V12.5263C22.75 13.5105 23.5375 14.3158 24.5 14.3158C25.4625 14.3158 26.25 13.5105 26.25 12.5263V10.7368H29.75C30.7125 10.7368 31.5 11.5421 31.5 12.5263V21.4737Z" fill="white"/>
</svg>
