<svg class="rotate-45 w-11 h-11 lg:w-auto lg:h-auto" width="55" height="55" viewBox="0 0 55 55" fill="none" xmlns="http://www.w3.org/2000/svg">
<path d="M8.09188 8.09171C-2.44684 18.6304 -2.44684 35.7368 8.09188 46.2755C18.6306 56.8142 35.7369 56.8142 46.2756 46.2755C56.8144 35.7368 56.8144 18.6304 46.2756 8.09171C35.7369 -2.44701 18.6306 -2.44701 8.09188 8.09171ZM40.4144 44.2326C31.9376 50.8384 19.6997 50.2466 11.9103 42.4571C10.7266 41.2734 9.75288 39.9942 8.89374 38.6387L27.1838 38.6387L29.093 40.5479C31.1931 42.648 34.6296 42.648 36.7297 40.5479L40.4144 44.2326ZM48.7385 26.2099C46.6957 25.1599 44.1755 25.4653 42.4573 27.1836L40.5481 29.0928L34.8205 23.3652C33.7705 22.3152 32.0522 22.3152 31.0021 23.3652L19.547 34.8203L15.7286 31.002L19.547 27.1836C20.5971 26.1335 20.5971 24.4153 19.547 23.3652L15.7286 19.5468L19.547 15.7285C21.6471 13.6284 21.6471 10.1918 19.547 8.09171L18.7642 7.30894C26.6301 3.98696 36.0615 5.51431 42.4573 11.9101C46.4284 15.8812 48.5094 21.0169 48.7385 26.2099Z" fill="white"/>
</svg>
