<svg width="34" height="34" viewBox="0 0 34 34" fill="none" xmlns="http://www.w3.org/2000/svg">
<path d="M30.6 7.15789H25.5V3.57895C25.5 1.59263 23.987 0 22.1 0H11.9C10.013 0 8.5 1.59263 8.5 3.57895V7.15789H3.4C1.513 7.15789 0 8.75053 0 10.7368V30.4211C0 32.4074 1.513 34 3.4 34H30.6C32.487 34 34 32.4074 34 30.4211V10.7368C34 8.75053 32.487 7.15789 30.6 7.15789ZM11.9 3.57895H22.1V7.15789H11.9V3.57895ZM30.6 30.4211H3.4V26.8421H30.6V30.4211ZM30.6 21.4737H3.4V12.5263C3.4 11.5421 4.165 10.7368 5.1 10.7368H8.5V12.5263C8.5 13.5105 9.265 14.3158 10.2 14.3158C11.135 14.3158 11.9 13.5105 11.9 12.5263V10.7368H22.1V12.5263C22.1 13.5105 22.865 14.3158 23.8 14.3158C24.735 14.3158 25.5 13.5105 25.5 12.5263V10.7368H28.9C29.835 10.7368 30.6 11.5421 30.6 12.5263V21.4737Z" fill="white"/>
</svg>
