<svg width="24" height="15" viewBox="0 0 24 15" fill="none" xmlns="http://www.w3.org/2000/svg">
<path d="M4 9H20C20.7333 9 21.3333 8.325 21.3333 7.5C21.3333 6.675 20.7333 6 20 6H4C3.26667 6 2.66667 6.675 2.66667 7.5C2.66667 8.325 3.26667 9 4 9ZM1.33333 15H17.3333C18.0667 15 18.6667 14.325 18.6667 13.5C18.6667 12.675 18.0667 12 17.3333 12H1.33333C0.6 12 0 12.675 0 13.5C0 14.325 0.6 15 1.33333 15ZM5.33333 1.5C5.33333 2.325 5.93333 3 6.66667 3H22.6667C23.4 3 24 2.325 24 1.5C24 0.675 23.4 0 22.6667 0H6.66667C5.93333 0 5.33333 0.675 5.33333 1.5Z" fill="#323232"/>
</svg>
