<svg width="36" height="44" viewBox="0 0 36 44" fill="none" xmlns="http://www.w3.org/2000/svg">
<path d="M18 24.469C21.3137 24.469 24 21.8159 24 18.5431C24 15.2703 21.3137 12.6172 18 12.6172C14.6863 12.6172 12 15.2703 12 18.5431C12 21.8159 14.6863 24.469 18 24.469Z" stroke="black" stroke-width="3.5" stroke-linecap="round" stroke-linejoin="round"/>
<path d="M18 2.74072C13.7565 2.74072 9.68687 4.40562 6.68629 7.36916C3.68571 10.3327 2 14.3521 2 18.5432C2 22.2805 2.804 24.7259 5 27.4321L18 42.2469L31 27.4321C33.196 24.7259 34 22.2805 34 18.5432C34 14.3521 32.3143 10.3327 29.3137 7.36916C26.3131 4.40562 22.2435 2.74072 18 2.74072V2.74072Z" stroke="black" stroke-width="3.5" stroke-linecap="round" stroke-linejoin="round"/>
</svg>
