<svg width="39" height="39" viewBox="0 0 39 39" fill="none" xmlns="http://www.w3.org/2000/svg">
<path d="M34.046 30.3249C33.1093 29.4387 32.1976 28.5271 31.312 27.5911C30.568 26.8444 30.12 26.3012 30.12 26.3012L24.52 23.6602C26.762 21.1489 27.9993 17.916 28 14.5679C28 6.94517 21.72 0.740723 14 0.740723C6.28 0.740723 0 6.94517 0 14.5679C0 22.1906 6.28 28.395 14 28.395C17.526 28.395 20.74 27.0913 23.206 24.96L25.88 30.4909C25.88 30.4909 26.43 30.9333 27.186 31.6681C27.96 32.3852 28.978 33.355 29.954 34.3684L32.67 37.118L33.878 38.3941L38.12 34.2044L36.828 33.0113C36.07 32.2765 35.058 31.3007 34.046 30.3249ZM14 24.4444C8.486 24.4444 4 20.0138 4 14.5679C4 9.12196 8.486 4.69134 14 4.69134C19.514 4.69134 24 9.12196 24 14.5679C24 20.0138 19.514 24.4444 14 24.4444Z" fill="black"/>
</svg>
