<svg width="32" height="32" viewBox="0 0 35 41" fill="none" xmlns="http://www.w3.org/2000/svg">
<path d="M9.2003 5.50612C2.95514 11.7513 2.95514 21.8884 9.2003 28.1335C15.4455 34.3787 25.5826 34.3787 31.8277 28.1335C38.0729 21.8884 38.0729 11.7513 31.8277 5.50612C25.5826 -0.739051 15.4455 -0.73905 9.2003 5.50612ZM28.3544 26.923C23.3311 30.8375 16.079 30.4868 11.463 25.8708C10.7616 25.1693 10.1846 24.4113 9.67548 23.608L20.514 23.608L21.6454 24.7394C22.8899 25.9839 24.9264 25.9839 26.1709 24.7394L28.3544 26.923ZM33.2872 16.2428C32.0766 15.6206 30.5832 15.8016 29.565 16.8198L28.4336 17.9512L25.0395 14.5571C24.4172 13.9348 23.399 13.9348 22.7768 14.5571L15.9885 21.3453L13.7258 19.0826L15.9885 16.8198C16.6108 16.1976 16.6108 15.1793 15.9885 14.5571L13.7258 12.2943L15.9885 10.0316C17.233 8.78709 17.233 6.75062 15.9885 5.50612L15.5247 5.04225C20.1859 3.07367 25.7749 3.97877 29.565 7.76886C31.9182 10.1221 33.1514 13.1655 33.2872 16.2428Z" fill="white"/>
</svg>
